<svg id="Calque_1" data-name="Calque 1" xmlns="http://www.w3.org/2000/svg" viewBox="0 0 283.46 283.46"><defs><style>.cls-1{fill:#1d1d1b;}</style></defs><title>bootstrap</title><path class="cls-1" d="M247.32,73.48c0-22.27-15.09-37.39-37.3-37.41q-68.29,0-136.58,0c-22.22,0-37.29,15.14-37.31,37.4q0,68.29,0,136.58a38.75,38.75,0,0,0,1.31,10.88c4.76,16.42,17.91,26.26,35.39,26.32,22.83.07,45.66,0,68.49,0s45.93,0,68.9,0c21.95-.06,37.08-15.21,37.1-37.2Q247.38,141.76,247.32,73.48ZM191.65,186.83c-5.89,10.89-16.43,14.85-27.75,17.17-6,1.23-12.17,1.06-18.28,1.08-16,0-32.06-.06-48.09.08-3,0-4.19-.6-4.18-4q.2-57.66,0-115.34c0-3.3,1-4.06,4.13-4,18.07.14,36.14,0,54.21.11,8.58.08,16.88,1.32,24.78,5.38,16.91,8.69,19,39,0,49.31-1.13.63-2.56.88-3.51,2.48C193.25,146.19,201.8,168.06,191.65,186.83Z"/><path class="cls-1" d="M137.24,149.34c6.52,0,13-.26,19.55.06,10.11.51,16.57,7.22,17.08,17.2.57,11.06-5,18.53-15.07,20.4a57.46,57.46,0,0,1-10.56.63q-14.87,0-29.75,0c-1.81,0-3.42.27-3.39-2.56.13-11.14.11-22.28,0-33.41,0-2.38,1.1-2.59,3-2.57,6.38.07,12.77,0,19.15,0Z"/><path class="cls-1" d="M135.53,99.68c5.84,0,11.7-.2,17.53,0,9.8.42,14.85,5.53,15.2,15,.39,10.42-4.85,17.51-14.26,18.43-12.19,1.2-24.44.26-36.66.52-1.92,0-2.21-.92-2.21-2.52,0-9.65.09-19.3,0-28.95,0-2.31.94-2.66,2.9-2.63,5.84.1,11.69,0,17.53,0Z"/></svg>