<svg id="Calque_1" data-name="Calque 1" xmlns="http://www.w3.org/2000/svg" viewBox="0 0 489.24 500"><defs><style>.cls-1,.cls-10,.cls-9{fill:#d6d8e5;}.cls-1{opacity:0.15;}.cls-1,.cls-2,.cls-9{isolation:isolate;}.cls-2,.cls-3{fill:#edeff9;}.cls-2{opacity:0.5;}.cls-4{fill:#ffbc00;}.cls-5{fill:#8c50ff;}.cls-6{fill:#424956;}.cls-7{fill:#494949;}.cls-8{fill:#2b303f;}.cls-9{opacity:0.4;}.cls-11{fill:#edf0f9;}.cls-12{fill:#e2e5f2;}.cls-13{fill:#6e48e5;}.cls-14{fill:#5e42d3;}.cls-15{fill:#ffcea9;}.cls-16{fill:#ededed;}.cls-17{fill:#38226d;}.cls-18{fill:#9c73ff;}.cls-19{fill:#f4f4f4;}.cls-20{fill:#3a2c6d;}</style></defs><title>competences</title><g id="Слой_2" data-name="Слой 2"><g id="Слой_1-2" data-name="Слой 1-2"><ellipse class="cls-1" cx="385.25" cy="352.99" rx="86.75" ry="50.09"/><ellipse class="cls-2" cx="384.25" cy="347.64" rx="48.39" ry="27.93"/><ellipse class="cls-3" cx="383.79" cy="337.72" rx="13.8" ry="7.97"/><rect class="cls-3" x="370.98" y="232.04" width="26.53" height="104.27"/><path class="cls-4" d="M369.72,230.86s.72,21.44,16,59.9c0,0,14.2-31,15.68-60.55S369.72,230.86,369.72,230.86Z"/><polygon class="cls-5" points="351.08 150.13 315.79 184.48 311.59 229.33 354.28 207.92 362.05 153.22 351.08 150.13"/><polygon class="cls-5" points="420.31 150.13 455.6 184.48 459.81 229.33 416.96 206.44 409.35 153.22 420.31 150.13"/><ellipse class="cls-6" cx="385.25" cy="226.14" rx="17.55" ry="10.13"/><polygon class="cls-7" points="358.65 216.01 358.65 206.9 411.8 206.9 411.8 216.35 358.65 216.01"/><ellipse class="cls-8" cx="385.25" cy="216" rx="26.6" ry="15.36"/><ellipse class="cls-3" cx="385.17" cy="202.17" rx="32.47" ry="18.74"/><path class="cls-3" d="M420.23,168.79h0v8c0,1.63-.09,3.18-.15,4.7,0,1.9-.13,3.69-.23,5.42s-.18,3.41-.3,5c-.49,6.81-.48,11.83-1.33,13.79-4.59,10.75-20.14,4.83-27.81,1-2.83-1.42-4.7-2.59-4.7-2.59H385a56.66,56.66,0,0,1-5.5,2.5c-8,3.26-22.38,9-26.36-.91-.71-1.79-1.43-7.68-1.86-13.86-.11-1.54-.21-3.19-.3-5s-.15-3.5-.22-5.4c0-1.51-.08-3.06-.12-4.68v-3.62h0v-4.42h0c-.22-42.08,4.25-109.36,19-138.08C373.89,22.35,379,17.27,385.12,17h.7c6,.32,11.2,5.37,15.47,13.64C415.82,59.22,420.49,126.24,420.23,168.79Z"/><circle class="cls-8" cx="385.34" cy="116.84" r="12.27"/><path class="cls-6" d="M385.34,130.91a14.07,14.07,0,1,1,14.06-14.07A14.07,14.07,0,0,1,385.34,130.91Zm0-24.53a10.47,10.47,0,1,0,10.45,10.48v0A10.47,10.47,0,0,0,385.34,106.38Z"/><circle class="cls-8" cx="385.34" cy="80.78" r="12.27"/><path class="cls-6" d="M385.34,94.88a14.08,14.08,0,1,1,14.06-14.1A14.07,14.07,0,0,1,385.34,94.88Zm0-24.53a10.47,10.47,0,1,0,10.45,10.48v0a10.46,10.46,0,0,0-10.45-10.48h0Z"/><path class="cls-5" d="M420.23,193v4.44c-1.21,4-4.49,7.79-9.82,10.85-13.82,8-36.18,8-50.06,0-5.33-3.09-8.6-6.91-9.82-10.85h0v-4.43c1.21,4,4.46,7.91,9.87,11,13.83,8,36.24,8,50.06,0C415.75,200.93,419.1,197.08,420.23,193Z"/><path class="cls-5" d="M420.12,200.06c0,1.61-.09,3.18-.15,4.69-1.35,3.76-4.56,7.34-9.65,10.26-13.82,8-36.18,8-50.06,0-5.07-2.94-8.28-6.55-9.65-10.33,0-1.51-.08-3.07-.12-4.67,1.21,3.93,4.5,7.67,9.76,10.71,13.83,8,36.24,8,50.06,0C415.59,207.69,418.85,204,420.12,200.06Z"/><path class="cls-5" d="M419.74,187.6c-1.46,3.53-4.59,6.9-9.38,9.65-13.82,8-36.18,8-50.06,0-4.83-2.8-8-6.18-9.42-9.75.1,1.76.19,3.42.3,5,1.56,3.33,4.6,6.46,9.12,9.08a47.75,47.75,0,0,0,19.1,5.69,60.6,60.6,0,0,0,10.86.09,48.49,48.49,0,0,0,20.05-5.78c4.49-2.59,7.52-5.69,9.08-9Z"/><path class="cls-5" d="M401.07,30.64a54,54,0,0,1-31.65,0c4.25-8.31,9.37-13.39,15.48-13.69h.7C391.69,17.31,396.8,22.36,401.07,30.64Z"/><rect class="cls-5" x="382.68" y="150.23" width="6.02" height="79.01"/><path class="cls-9" d="M94,491.09l-53.84-31c-6.1-3.53-5.34-9.65,1.72-13.75l27.32-15.78c7-4.07,17.67-4.55,23.81-.93l53.84,31.09c6.1,3.52,5.34,9.65-1.71,13.73L117.76,490.2C110.71,494.21,100.09,494.71,94,491.09Z"/><path class="cls-10" d="M174.86,452.34V377.2l-115-12.94v75.61h0c-.07,2.32,1.21,4.53,4.11,6.17l53.83,31.09c6.1,3.52,16.77,3.07,23.81-1L169,460.35c4-2.29,5.94-5.24,5.82-8Z"/><path class="cls-11" d="M174.79,385.4v-8.2H166l-49.1-28.36c-6.1-3.53-16.76-3.08-23.8,1L65.72,365.67a14.66,14.66,0,0,0-1.41.9l-4.41-2.25v9h0c-.07,2.29,1.21,4.5,4.11,6.14l53.83,31.08c6.1,3.52,16.77,3.07,23.81-1L169,393.73c4.09-2.41,6-5.42,5.8-8.27Z"/><path class="cls-12" d="M117.84,401.5,64,370.42c-6.11-3.52-5.35-9.65,1.71-13.75L93.05,340.9c7-4.08,17.7-4.51,23.8-1L170.69,371c6.1,3.52,5.34,9.64-1.71,13.75l-27.33,15.77C134.61,404.59,123.94,405,117.84,401.5Z"/><path class="cls-13" d="M105.71,359.07v-3h-1.83l-.57-.36a12.84,12.84,0,0,0-11.64,0,7.23,7.23,0,0,0-1,.69l-1.43-.33v3a4.12,4.12,0,0,0,2.41,3.37,12.9,12.9,0,0,0,11.64,0A4.08,4.08,0,0,0,105.71,359.07Z"/><ellipse class="cls-5" cx="97.48" cy="356.08" rx="8.23" ry="4.75"/><path class="cls-14" d="M126.11,371.7a4.83,4.83,0,0,1-2.2,2.33,12.94,12.94,0,0,1-11.63,0,4.9,4.9,0,0,1-2.21-2.33c-.6-1.55.15-3.2,2.21-4.4a12.88,12.88,0,0,1,11.63,0C126,368.44,126.72,370.09,126.11,371.7Z"/><path class="cls-5" d="M126.11,371.7a4.83,4.83,0,0,1-2.2,2.33,12.94,12.94,0,0,1-11.63,0,2.34,2.34,0,0,1,0-4.67,12.88,12.88,0,0,1,11.63,0A4.77,4.77,0,0,1,126.11,371.7Z"/><path class="cls-13" d="M145.45,382.4v-3h-1.84l-.56-.36a12.9,12.9,0,0,0-11.64,0,8.16,8.16,0,0,0-1,.68L129,379.4v3a4.08,4.08,0,0,0,2.41,3.36,12.84,12.84,0,0,0,11.64,0A4.07,4.07,0,0,0,145.45,382.4Z"/><ellipse class="cls-5" cx="137.22" cy="379.4" rx="8.23" ry="4.75"/><g id="Men_2" data-name="Men 2"><path id="_Контур_" data-name=" Контур " class="cls-15" d="M46.18,347c-.33,2.81-3.62,14.94-3,19.1S55.39,377.2,55.39,377.2l1.6-7.12-6.35-6.22,1.72-11.78Z"/><path id="_Контур_2" data-name=" Контур 2" class="cls-16" d="M55,335A5,5,0,0,0,48.66,337c-1.68,2.8-3.43,12.38-3.61,14,0,0,2.41,3.27,5.92,2.72Z"/><path class="cls-17" d="M68.13,470.3a9.85,9.85,0,0,0,7.42-.9c1.78.06,11.49-4.1,12.8-.62,1.21,3.07-3,5.89-5.29,6.43-4.9,1.21-8.51,3.62-10.49,4.05-1.46.3-3.37.51-4.52-.65C66.63,477.24,66.75,472.12,68.13,470.3Z"/><path class="cls-18" d="M72.57,478.41c2-.41,5.59-2.86,10.49-4,1.88-.46,5.13-2.51,5.45-5,.44,2.81-3.35,5.3-5.45,5.81-4.9,1.21-8.51,3.62-10.49,4.05-1.46.3-3.37.51-4.52-.65a2.68,2.68,0,0,1-.66-1.2A5.9,5.9,0,0,0,72.57,478.41Z"/><path class="cls-17" d="M52.4,463.23a9.8,9.8,0,0,0,7.42-.89c1.79,0,11.48-4.1,12.81-.61,1.2,3-3,5.87-5.3,6.43-4.89,1.2-8.52,3.61-10.49,4-1.47.3-3.36.5-4.53-.64C50.91,470.17,51,465.06,52.4,463.23Z"/><path class="cls-18" d="M56.84,471.35c2-.42,5.6-2.86,10.49-4.05,1.89-.45,5.13-2.51,5.45-5,.44,2.81-3.35,5.3-5.45,5.82-4.89,1.2-8.52,3.61-10.49,4-1.47.3-3.36.5-4.53-.64a2.84,2.84,0,0,1-.64-1.21A5.88,5.88,0,0,0,56.84,471.35Z"/><path id="_Контур_3" data-name=" Контур 3" class="cls-5" d="M52.21,436.88a60,60,0,0,1,2.23-10.62s-.66-9.17-1-17.86c-.37-9.87-3.8-18.55-1.1-26.41l30.43,6.76s-1.83,39.33-2.24,44.08a87.31,87.31,0,0,1-1.37,11.05c-1.38,7.63-3.61,25.8-3.61,25.8-3.21,1.86-7.44.83-7.44.83s.24-22.92.44-28.46c.26-6.72.46-6.22.46-6.22l-1-16.72-.65-8.32s-.85,6.1-1.4,11.56c-.47,4.75-1.62,9.06-2.91,17.91-1.11,7.68-2.92,23.12-2.92,23.12-3.22,1.87-7.58.31-7.58.31S51.34,443.54,52.21,436.88Z"/><path id="_Контур_4" data-name=" Контур 4" class="cls-15" d="M56.67,335.19c2.33.12,4,.71,4.34,0a29.22,29.22,0,0,0,.52-3.62c-.26-.67-.49-1.39-.49-1.39-2.91-1.79-3.82-4.94-4.21-8.6-.65-6.26,2.72-11.74,9-12.39,5.89-.61,10.23,3.52,11.38,9.2.62,2.8,1.87,8.11.19,12.71-.94,2.58-2.15,4.64-3.35,5a29.19,29.19,0,0,1-3.49-.31h0s-.31,1.74-.53,2.85-.13,1.71,2.09,3.07-3.37,4.22-7,3.94-7.74-2.47-8.87-4.82C55,338.22,55.06,335.12,56.67,335.19Z"/><path id="_Контур_5" data-name=" Контур 5" class="cls-19" d="M60,335.52c-.64,1.6,1,3.62,5.34,4.92s4.76-.39,4.76-.39a86.29,86.29,0,0,1,8.44,4.36c2.61,1.83,3.77,7.11,4.12,16,.41,10.32.45,25.64.1,28.28,0,0-4.83,4.82-11.13,4.35s-16.75-6-19.3-10.31c.07-9.06,1.13-10.53-.34-15.74-3.35-11.94-5.11-16.88-3.48-24.76,1.34-6.55,3.22-7.36,5.81-7.29A49.16,49.16,0,0,1,60,335.52Z"/><path id="_Контур_6" data-name=" Контур 6" class="cls-15" d="M92.5,369c-5.13,1.29-6.33-1.94-7-4.62-1.64-6.49-2.51-12.34-3.73-16-1.44-4.34-2.94-5-5-5.87-2.41-1-4.61,1.1-3.79,6.62A110.14,110.14,0,0,0,77.65,368c.63,2,2.06,5.6,4.2,7.33,2.65,2.14,6.64,2.05,12.67.56,2.57-.65,5.39-2.18,10.25-4.45,1.3-.6,2.31-1,4.82-2.18a17,17,0,0,0,6.43-5c1.32-1.91,1.48-2.8,1.21-3.23s-.93-.43-1.63.38a14.3,14.3,0,0,1-3.69,3.42s1.61-1.68,2.49-2.77a13.94,13.94,0,0,0,1.95-3.17c.45-1.11-.5-2.61-1.21-1.82s-1.07,1.59-2.41,3.19a13.58,13.58,0,0,1-2.41,2.26A25.47,25.47,0,0,0,112.5,359a5.83,5.83,0,0,0,.81-3.18c0-.58-.86-1.27-1.63-.17a21.33,21.33,0,0,1-2.75,4.21c-1.21,1.2-2.17,1.9-2.2,1.56s.7-1,1.13-2.41,0-2.92-.79-3.07-.63-.12-1.2,1.2a36.38,36.38,0,0,0-2.33,4.24,8.91,8.91,0,0,1-2.11,3.61C100.16,366.3,97.38,367.78,92.5,369Z"/><path id="_Контур_7" data-name=" Контур 7" class="cls-16" d="M74.82,341.61c3.43-.51,5.85,1,7.36,6.22s2.57,9.4,2.57,9.4A9.35,9.35,0,0,1,79,361c-4.1,1-5.57-1-5.57-1s-1.14-5.42-1.85-9.13S70.59,342.24,74.82,341.61Z"/><path class="cls-20" d="M77,317.58s5.4-8.22-6.32-9.9c-8.44-1.2-13.88,4.22-14.47,10.12-.6,5.63,2.87,11.48,5.36,13.8a10.25,10.25,0,0,0,7.31-.88,39.39,39.39,0,0,0,.17-4.61S64.86,317.43,77,317.58Z"/></g></g></g></svg>