<svg id="Calque_1" data-name="Calque 1" xmlns="http://www.w3.org/2000/svg" viewBox="0 0 437.56 500"><defs><style>.cls-1,.cls-14,.cls-15{fill:#d6d8e5;}.cls-1{opacity:0.2;}.cls-1,.cls-14,.cls-20{isolation:isolate;}.cls-2{fill:#38226d;}.cls-3{fill:#9c73ff;}.cls-4{fill:#8c50ff;}.cls-5{fill:#2b303f;}.cls-6{fill:#ffcea9;}.cls-7{fill:#f4f4f4;}.cls-8{fill:#d3c4a9;}.cls-9{fill:#efe3ca;}.cls-10{fill:#3a2c6d;}.cls-11{fill:#ededed;}.cls-12{fill:#bfbfbf;}.cls-13{fill:#e5e5e5;}.cls-14{opacity:0.4;}.cls-16{fill:#e4e6ef;}.cls-17{fill:#28221c;}.cls-18{fill:#99b524;}.cls-19{fill:#a6ce28;}.cls-20{fill:#fff;opacity:0.07;}.cls-21{fill:#b0b4c1;}.cls-22{fill:#bfc2d1;}</style></defs><title>creative</title><g id="Слой_2" data-name="Слой 2"><g id="Слой_1-2" data-name="Слой 1-2"><g id="Men_12" data-name="Men 12"><polygon class="cls-1" points="284.57 500 2.75 337.5 160.28 247.81 442.1 410.31 284.57 500"/><path class="cls-2" d="M241.92,355.66c-4.19,3.41-10.38.28-10.74.61-4.28,4.27-10.75,9.15-15.52,12.88-2.62,2.06-6.7,4.77-6,8.77,1.32,7.07,12.64,4.9,16.92,2.74s7.74-5.76,11.79-8.26c2.88-1.79,5.72-2.73,6.16-6.37C244.93,363.9,242.66,355.54,241.92,355.66Z"/><path class="cls-3" d="M244.61,364.56c-.56,3.49-3.36,4.46-6.22,6.24-4.11,2.54-7.72,6.23-11.94,8.35-3.95,2-13.79,4-16.56-1.07,1.51,6.82,12.62,4.68,16.86,2.54s7.75-5.75,11.79-8.26c2.88-1.79,5.72-2.72,6.17-6.36A6.35,6.35,0,0,0,244.61,364.56Z"/><path class="cls-2" d="M199.36,331.15c-4.19,3.41-11.53-.33-11.84,0a161.68,161.68,0,0,1-13.84,12.45c-2.61,2-6.69,4.78-6,8.76,1.31,7.07,12.63,4.9,16.91,2.74s7.76-5.76,11.79-8.27c2.89-1.79,5.72-2.72,6.17-6.35C202.87,338.31,200.11,331.05,199.36,331.15Z"/><path class="cls-3" d="M202.43,339.54c-.55,3.49-3.36,4.45-6.21,6.23-4.11,2.55-7.72,6.23-12,8.36-3.94,2-13.79,4-16.56-1.07,1.52,6.81,12.63,4.68,16.86,2.54s7.76-5.76,11.8-8.26c2.89-1.79,5.72-2.73,6.17-6.37A6.82,6.82,0,0,0,202.43,339.54Z"/><path id="_Контур_" data-name=" Контур " class="cls-4" d="M298,221.18c4.65,29-8.26,39.89-25.07,46.07-12,4.43-29.3,11.26-29.3,11.26s.24,6.37.37,20.69c.12,12.59-1.54,58.59-1.54,58.59s-6.94,3.59-12.84-.14c0,0-6.76-35.24-8.2-51.13-1.95-21.55-5.26-35.66-4.15-40.3,1-4.08,24.53-15.67,32-21.87l-49.36,16.54a86.62,86.62,0,0,1,1.44,16.23c-.46,17.1-1.4,54.12-1.4,54.12s-6.77,4.89-12.55.1c0,0-12.41-73.3-10.91-83,1.43-9.21,44.93-28,52.59-34.51a12.33,12.33,0,0,1,9.66-2.6Z"/><path class="cls-5" d="M279.13,116.51l28.71,14s15.59,5.55,11.22,31.9c-3.17,19.1-7.42,57.4-7.42,57.4l-54-5.46Z"/><path id="_Контур_2" data-name=" Контур 2" class="cls-6" d="M280.84,111.82s-.71,13.83-.4,15.06,6.35,5.28,8.11,6.74-9.56,12.62-15.07,15.15-23-4.15-23.27-12.71,3-15.77,5.67-16.15S280.84,111.82,280.84,111.82Z"/><path class="cls-6" d="M230.59,143.76l-9.94,16.58L207.4,175.26l9.94,6.63,13.25-11.61s21-24.87,19.6-26.52S230.59,143.76,230.59,143.76Z"/><path id="_Контур_3" data-name=" Контур 3" class="cls-7" d="M282.42,129.27s-10,14.95-24,16.36c-4.42-4.35-4.78-19.85,1.28-24.8,0,0-5.61-4.52-9.45-3.65a19.8,19.8,0,0,0-8.64,11,90.12,90.12,0,0,0-4.95,32c.24,14.69,0,51.79,0,51.79s2.09,14.19,14.76,21.24a45.6,45.6,0,0,0,33.24,4.59c7.09-1.65,9.74-5.63,12.17-10.75-.63-10.29-4.7-31.47-3-44.4s4.44-22.6,5.15-33.06-1.38-10.24-6.62-14A81.41,81.41,0,0,0,282.42,129.27Z"/><ellipse class="cls-5" cx="276.09" cy="479.58" rx="6.63" ry="3.83"/><rect class="cls-5" x="269.47" y="349.15" width="13.26" height="130.04"/><ellipse class="cls-5" cx="31.95" cy="333.96" rx="6.63" ry="3.83"/><rect class="cls-5" x="25.33" y="203.52" width="13.26" height="130.04"/><ellipse class="cls-5" cx="412.58" cy="402.51" rx="6.63" ry="3.83"/><rect class="cls-5" x="405.95" y="282.02" width="13.26" height="120.09"/><path class="cls-8" d="M429,295.84,144.51,131.66,9.93,209.36l-7.17-4.15v8.25l291.6,168.42L436.12,300v-8.28Z"/><polygon class="cls-9" points="294.38 373.59 2.75 205.22 144.51 123.37 436.15 291.75 294.38 373.59"/><path id="_Контур_4" data-name=" Контур 4" class="cls-6" d="M266.29,248.49c2.46-1.19,4.25-3.05,7.86-4.51a16.42,16.42,0,0,0,6.73-4.07c2.46-2.39,6.5-11.53,9.37-20.42,3.41-10.49,4-24.75,3.39-30.89-1.19-12.47-5.72-29.92-6.85-37.1s1.19-10,4.51-12.68c3.92-3.1,9.33-1.73,12.23,8.36a193.58,193.58,0,0,1,6.43,42.6,97,97,0,0,1-4.86,31.44c-3,9.44-7,16.22-12,24.74-1.39,2.32-1.83,4.38-3.93,9.11s-5.69,9.73-9.15,12.23-5.18,2.87-6,2.39c-1-.61-.82-1.74.65-3.07a26.23,26.23,0,0,0,6.28-7s-3.08,3.1-5.09,4.78a26.74,26.74,0,0,1-5.87,3.75c-2.07.91-4.92-.84-3.46-2.22s2.94-2.07,5.88-4.61a26.67,26.67,0,0,0,4.17-4.52A49.66,49.66,0,0,1,270.1,261c-3.2,1.64-4.86,1.66-6,1.61s-2.39-1.56-.37-3c1.83-1.33,4.69-2.22,7.78-5.3,2.25-2.24,3.53-4.13,2.89-4.17s-1.86,1.36-4.5,2.2-5.45.07-5.79-1.38S263.83,249.71,266.29,248.49Z"/><path id="_Контур_5" data-name=" Контур 5" class="cls-6" d="M249.53,91.2h0c1.65-10.75,9.38-18.89,20.46-18.27a21.3,21.3,0,0,1,10.85,38.89,21.26,21.26,0,0,1-1.71,4.69c-3.92,4.58-15.76,7.41-19.17,6.92-4.37-.62-6.74-2.44-8.82-7.22C247.46,107.78,248.62,96.46,249.53,91.2Z"/><path class="cls-10" d="M280.84,111.82h0l-1-9.38s7.65-19.81-10.43-16C257.46,88.94,254.46,90,250.82,82S260,66.81,275.22,68.8A21,21,0,0,1,294,90.13C293.64,96,292.07,108,280.84,111.82Z"/><path class="cls-11" d="M311.8,165.6s-9.87,9.82-21.55,7c-1.67-1.14-5.68-24.09-5.68-24.09s0-12.71,9.75-12.38S311.8,165.6,311.8,165.6Z"/><g id="_Группа_" data-name=" Группа "><g id="_Группа_2" data-name=" Группа 2"><path id="_Контур_6" data-name=" Контур 6" class="cls-7" d="M156.39,221.7l39.2-22.56a2.21,2.21,0,0,1,2.25,0l68.76,39.69-40.29,23.23Z"/><path class="cls-5" d="M228.11,253.73l3,1.72c.24.15.22.4-.07.55l-2.85,1.64a1,1,0,0,1-.94,0l-3-1.72c-.24-.14-.2-.38.07-.55l2.85-1.65A1.11,1.11,0,0,1,228.11,253.73Z"/><path class="cls-5" d="M223.92,251.29l3,1.73c.23.14.21.38-.08.55l-2.92,1.68a1.08,1.08,0,0,1-1,0l-3-1.73c-.24-.13-.22-.38.07-.55l2.85-1.63A1.06,1.06,0,0,1,223.92,251.29Z"/><path class="cls-5" d="M219.6,248.82l3,1.73c.25.14.22.38,0,.55l-2.85,1.64a1.08,1.08,0,0,1-1,0l-3-1.72c-.25-.14-.22-.39.07-.54l2.84-1.65A1.09,1.09,0,0,1,219.6,248.82Z"/><path class="cls-5" d="M215.42,246.4l3,1.74c.25.14.22.38-.07.54l-2.84,1.65a1.06,1.06,0,0,1-1,0l-3-1.73c-.25-.13-.21-.38.06-.55l2.85-1.63A1,1,0,0,1,215.42,246.4Z"/><path class="cls-5" d="M211.19,244l3,1.72c.24.14.21.39-.07.55l-2.86,1.64a1,1,0,0,1-.94,0l-3-1.71c-.24-.15-.2-.4.07-.55l2.86-1.65A1,1,0,0,1,211.19,244Z"/><path class="cls-5" d="M207,241.52l3,1.79c.24.13.2.38-.07.55L207,245.51a1.08,1.08,0,0,1-1,0l-3-1.73c-.24-.13-.22-.38.07-.55l2.85-1.65A1,1,0,0,1,207,241.52Z"/><path class="cls-5" d="M202.73,239.09l3,1.71c.25.15.22.39-.06.55L202.8,243a1,1,0,0,1-1,0l-3-1.72c-.25-.14-.22-.39.07-.55l2.84-1.64A1,1,0,0,1,202.73,239.09Z"/><path class="cls-5" d="M198.5,236.64l3,1.73c.23.13.21.38-.08.55l-2.84,1.63a1,1,0,0,1-.95,0l-3-1.73c-.25-.14-.21-.38.06-.55l2.86-1.64A1.06,1.06,0,0,1,198.5,236.64Z"/><path class="cls-5" d="M194.28,234.2l3,1.72c.24.15.21.38-.07.55l-2.86,1.65a1,1,0,0,1-.94,0l-3-1.72c-.23-.14-.2-.39.08-.55l2.85-1.65A1.08,1.08,0,0,1,194.28,234.2Z"/><path class="cls-5" d="M190,231.76l3,1.73c.24.13.21.38-.07.53l-2.85,1.65a1.08,1.08,0,0,1-1,0l-3-1.73c-.24-.14-.22-.38.07-.55l2.85-1.65A1.06,1.06,0,0,1,190,231.76Z"/><path class="cls-5" d="M185.81,229.31l3,1.73c.25.14.21.38-.06.55l-2.86,1.65a1.13,1.13,0,0,1-.95,0l-3-1.72c-.25-.15-.21-.4.07-.55l2.85-1.65A1.06,1.06,0,0,1,185.81,229.31Z"/><path class="cls-5" d="M181.58,226.87l3,1.72c.24.14.21.4-.07.55l-2.86,1.65a1,1,0,0,1-.94,0l-3-1.73c-.26-.15-.22-.39,0-.55l2.85-1.65A1.06,1.06,0,0,1,181.58,226.87Z"/><path class="cls-5" d="M177.36,224.42l3,1.74c.24.14.22.38-.07.54l-2.85,1.65a1,1,0,0,1-.94,0l-3-1.72c-.24-.14-.22-.39.07-.55l2.85-1.64A1.09,1.09,0,0,1,177.36,224.42Z"/><path class="cls-5" d="M171.09,220.81l5,2.9c.25.14.22.39,0,.55l-2.85,1.64a1.06,1.06,0,0,1-.95,0L167.21,223c-.24-.15-.2-.4.07-.55l2.85-1.65A1.08,1.08,0,0,1,171.09,220.81Z"/><path class="cls-5" d="M225.94,247.74l3,1.73c.24.13.22.38-.07.55L226,251.67a1.06,1.06,0,0,1-.95,0l-3-1.73c-.24-.13-.21-.38.07-.55l2.85-1.65A1.08,1.08,0,0,1,225.94,247.74Z"/><path class="cls-5" d="M221.7,245.29l3,1.74c.24.14.22.38-.07.54l-2.85,1.71a1,1,0,0,1-.94,0l-3-1.73c-.24-.13-.2-.38.07-.55l2.85-1.63A1.12,1.12,0,0,1,221.7,245.29Z"/><path class="cls-5" d="M217.46,242.85l3,1.73c.23.14.21.38-.08.55l-2.84,1.64a1.06,1.06,0,0,1-.95,0l-3-1.71c-.25-.15-.21-.4.06-.55l2.86-1.65A1.06,1.06,0,0,1,217.46,242.85Z"/><path class="cls-5" d="M213.17,240.41l3,1.72c.25.14.21.38-.07.55l-2.84,1.65a1.15,1.15,0,0,1-1,0l-3-1.72a.3.3,0,0,1,0-.55l2.85-1.65A1,1,0,0,1,213.17,240.41Z"/><path class="cls-5" d="M209,238l3,1.75c.25.14.22.38-.07.55l-2.84,1.65a1.15,1.15,0,0,1-1,0l-3-1.73c-.25-.14-.22-.39.06-.55L208,238A1.06,1.06,0,0,1,209,238Z"/><path class="cls-5" d="M204.82,235.53l3,1.73c.25.14.22.38-.06.55l-2.92,1.65a1.15,1.15,0,0,1-1,0l-3-1.72c-.25-.15-.22-.4.07-.55l2.84-1.65A1.08,1.08,0,0,1,204.82,235.53Z"/><path class="cls-5" d="M200.54,233.09l3,1.72c.25.14.21.38,0,.55L200.67,237a1.06,1.06,0,0,1-.95,0l-3-1.72c-.23-.14-.21-.39.08-.55l2.84-1.65A1.06,1.06,0,0,1,200.54,233.09Z"/><path class="cls-5" d="M196.3,230.64l3,1.72c.24.15.2.39-.07.55l-2.85,1.65a1,1,0,0,1-1,0l-3-1.72c-.24-.14-.22-.39.07-.55l2.85-1.65A1,1,0,0,1,196.3,230.64Z"/><path class="cls-5" d="M192.07,228.2l3,1.72c.24.14.21.39-.07.55l-2.85,1.64a1,1,0,0,1-1,0l-3-1.72c-.24-.14-.22-.38.07-.55l2.85-1.64A1,1,0,0,1,192.07,228.2Z"/><path class="cls-5" d="M187.84,225.75l3,1.72c.24.14.22.39-.07.55l-2.85,1.65a1,1,0,0,1-.94,0L184,228c-.24-.15-.22-.39.07-.55l2.85-1.65A1.08,1.08,0,0,1,187.84,225.75Z"/><path class="cls-5" d="M183.6,223.3l3,1.72c.24.14.21.4-.08.55l-2.85,1.65a1,1,0,0,1-.94,0l-3-1.69c-.24-.14-.21-.38.07-.54l2.85-1.65A1.08,1.08,0,0,1,183.6,223.3Z"/><path class="cls-5" d="M179.36,220.85l3,1.74c.24.13.21.38-.07.55l-2.86,1.63a1,1,0,0,1-.94,0l-3-1.73c-.26-.14-.22-.38.05-.55l2.86-1.65A1.09,1.09,0,0,1,179.36,220.85Z"/><path class="cls-5" d="M230.16,250.19l5,2.9c.25.14.21.38-.06.55l-2.85,1.61a1,1,0,0,1-1,0l-5-2.83c-.24-.14-.22-.38.07-.55l2.85-1.65A1.08,1.08,0,0,1,230.16,250.19Z"/><path class="cls-5" d="M171.29,220.63l3,1.73a1,1,0,0,0,.88,0l3-1.74a.29.29,0,0,0,.16-.36.31.31,0,0,0-.16-.16l-.24-.14c-.22-.12-.22-.33,0-.47l3.19-1.83c.25-.15.25-.37,0-.52l-1.9-1.1a1,1,0,0,0-.88,0l-3,1.72-.61.36-.45.26-.44.25-2.57,1.48C171,220.28,171,220.51,171.29,220.63Z"/><path class="cls-5" d="M244.49,244.26l3,1.73c.23.13.21.38-.08.55l-2.85,1.63a1,1,0,0,1-.94,0l-3-1.73c-.25-.14-.21-.38,0-.55l2.86-1.65A1.06,1.06,0,0,1,244.49,244.26Z"/><path class="cls-5" d="M240.26,241.82l3,1.73c.24.13.22.38-.07.55l-2.85,1.6a1.06,1.06,0,0,1-1,0l-3-1.73c-.24-.14-.22-.38.07-.55l2.85-1.65A1.07,1.07,0,0,1,240.26,241.82Z"/><path class="cls-5" d="M236.05,239.38l3,1.74c.25.13.22.38,0,.54l-2.91,1.65a1,1,0,0,1-1,0l-3-1.73c-.24-.13-.21-.38.07-.55l2.86-1.65A1.1,1.1,0,0,1,236.05,239.38Z"/><path class="cls-5" d="M200.14,218.65l3,1.73c.25.14.22.38-.07.55l-2.84,1.64a1.08,1.08,0,0,1-1,0l-3-1.73c-.25-.13-.22-.38,0-.55l2.85-1.63A1.06,1.06,0,0,1,200.14,218.65Z"/><path class="cls-5" d="M195.92,216.21l3,1.73c.24.14.21.38-.07.55L196,220.14a1,1,0,0,1-.94,0l-3-1.73c-.24-.13-.2-.38.07-.55l2.86-1.64A1.09,1.09,0,0,1,195.92,216.21Z"/><path class="cls-5" d="M191.68,213.78l3,1.73c.24.14.2.38-.07.55l-2.85,1.64a1.08,1.08,0,0,1-1,0l-3-1.72c-.24-.14-.22-.39.07-.55l2.85-1.64A1,1,0,0,1,191.68,213.78Z"/><path class="cls-5" d="M187.48,211.34l3,1.73c.25.14.21.38,0,.55l-2.86,1.65a1.06,1.06,0,0,1-1,0l-3-1.72c-.25-.15-.21-.4.07-.55l2.85-1.65A1.06,1.06,0,0,1,187.48,211.34Z"/><path class="cls-5" d="M230.75,236.33l4.07,2.39c.25.13.21.38-.07.54l-2.84,1.66a1.08,1.08,0,0,1-1,0l-4.07-2.38c-.25-.15-.21-.4.07-.55l2.84-1.65A1,1,0,0,1,230.75,236.33Z"/><path class="cls-5" d="M204.35,221.08l4.07,2.39c.25.14.22.39-.06.55l-2.85,1.65a1.08,1.08,0,0,1-1,0l-4.07-2.39c-.24-.13-.21-.38.07-.55l2.85-1.64A1.06,1.06,0,0,1,204.35,221.08Z"/><path class="cls-5" d="M209.65,224.21l19.87,11.46c.24.14.21.4-.07.55l-2.86,1.65a1,1,0,0,1-.94,0l-19.87-11.46c-.23-.15-.21-.4.08-.55l2.85-1.65A1,1,0,0,1,209.65,224.21Z"/><path class="cls-5" d="M228.89,244.71l3,1.73c.24.14.22.38-.07.55L229,248.64a1.06,1.06,0,0,1-.95,0l-3-1.75c-.24-.13-.22-.38.07-.55l2.85-1.63A1.08,1.08,0,0,1,228.89,244.71Z"/><path class="cls-5" d="M224.66,242.27l3,1.72c.24.15.22.4-.07.55l-2.85,1.65a1,1,0,0,1-.94,0l-3-1.68c-.24-.15-.2-.39.07-.55l2.85-1.65A1.11,1.11,0,0,1,224.66,242.27Z"/><path class="cls-5" d="M220.43,239.84l3,1.72c.24.14.21.39-.07.55l-2.85,1.64a1,1,0,0,1-.95,0l-3-1.72c-.26-.14-.22-.39,0-.54l2.85-1.65A1,1,0,0,1,220.43,239.84Z"/><path class="cls-5" d="M216.21,237.34l3,1.73c.25.15.22.39-.07.55l-2.84,1.65a1.08,1.08,0,0,1-1,0l-3-1.72c-.25-.14-.22-.39,0-.55l2.85-1.65A1.11,1.11,0,0,1,216.21,237.34Z"/><path class="cls-5" d="M212,235l3,1.74c.25.13.21.38-.06.55l-2.86,1.63a1.06,1.06,0,0,1-1,0l-3-1.73c-.25-.14-.21-.38.07-.55L211,235A1.13,1.13,0,0,1,212,235Z"/><path class="cls-5" d="M207.75,232.57l3,1.72c.25.14.21.39-.06.55l-2.85,1.64a1,1,0,0,1-1,0l-3-1.72c-.24-.14-.22-.38.07-.55l2.85-1.64A1,1,0,0,1,207.75,232.57Z"/><path class="cls-5" d="M203.53,230.07l3,1.73c.24.15.21.38-.07.55L203.62,234a1.06,1.06,0,0,1-1,0l-3-1.72c-.24-.14-.21-.39.08-.55l2.85-1.65A1.1,1.1,0,0,1,203.53,230.07Z"/><path class="cls-5" d="M199.3,227.64l3,1.73c.24.13.21.38-.07.55l-2.86,1.63a1,1,0,0,1-.94,0l-3-1.73c-.24-.13-.21-.38.07-.55l2.86-1.65A1,1,0,0,1,199.3,227.64Z"/><path class="cls-5" d="M195.09,225.2l3,1.72c.24.14.22.39-.07.55l-2.85,1.65a1.06,1.06,0,0,1-1,0l-3-1.72c-.24-.15-.21-.38.07-.55l2.85-1.65A1.08,1.08,0,0,1,195.09,225.2Z"/><path class="cls-5" d="M190.86,222.77l3,1.71c.23.15.21.39-.08.55l-2.85,1.65a1,1,0,0,1-.94,0L187,225c-.25-.14-.21-.39.06-.55l2.86-1.64A1,1,0,0,1,190.86,222.77Z"/><path class="cls-5" d="M186.63,220.32l3,1.73c.25.14.21.38-.07.55l-2.84,1.61a1.08,1.08,0,0,1-1,0l-3-1.73c-.25-.13-.22-.38.06-.55l2.85-1.64A1.06,1.06,0,0,1,186.63,220.32Z"/><path class="cls-5" d="M182.41,217.88l3,1.72c.25.14.22.4-.07.55l-2.84,1.67a1.08,1.08,0,0,1-1,0l-3-1.73c-.25-.14-.22-.38.07-.55l2.84-1.65A1.11,1.11,0,0,1,182.41,217.88Z"/><path class="cls-5" d="M233.1,247.16l6.18,3.58c.24.14.22.39-.07.55l-2.85,1.57a1,1,0,0,1-.94,0l-6.19-3.58c-.24-.14-.21-.39.07-.55l2.86-1.65A1,1,0,0,1,233.1,247.16Z"/><path class="cls-5" d="M235.08,243.55l3,1.73c.24.15.21.38-.07.55l-2.86,1.65a1,1,0,0,1-.94,0l-3-1.72c-.24-.14-.2-.39.07-.55l2.86-1.65A1.09,1.09,0,0,1,235.08,243.55Z"/><path class="cls-5" d="M230.86,241.12l3,1.73c.24.13.22.38-.07.55L230.92,245a1.06,1.06,0,0,1-.95,0l-3-1.73c-.25-.13-.22-.38.06-.55l2.84-1.6A1,1,0,0,1,230.86,241.12Z"/><path class="cls-5" d="M226.63,238.68l3,1.72c.26.14.22.39-.07.55l-2.84,1.65a1.13,1.13,0,0,1-.95,0l-3-1.68c-.26-.14-.22-.38.06-.54l2.85-1.65A1.08,1.08,0,0,1,226.63,238.68Z"/><path class="cls-5" d="M222.4,236.24l3,1.72a.31.31,0,0,1,0,.55l-2.86,1.65a1,1,0,0,1-.95,0l-3-1.72c-.23-.14-.21-.39.08-.55l2.84-1.65A1.06,1.06,0,0,1,222.4,236.24Z"/><path class="cls-5" d="M218.18,233.76l3,1.73c.24.15.21.38-.07.55l-2.85,1.65a1.08,1.08,0,0,1-1,0l-3-1.72c-.24-.14-.22-.39.07-.55l2.85-1.65A1.09,1.09,0,0,1,218.18,233.76Z"/><path class="cls-5" d="M214,231.37l3,1.73c.24.14.21.39-.07.55L214,235.29a1,1,0,0,1-.94,0l-3-1.73c-.24-.15-.21-.38.07-.55l2.86-1.65A1.09,1.09,0,0,1,214,231.37Z"/><path class="cls-5" d="M209.74,229l3,1.71c.24.15.22.4-.07.55l-2.85,1.65a1,1,0,0,1-1,0l-3-1.72c-.25-.14-.22-.38.06-.55l2.85-1.64A1.08,1.08,0,0,1,209.74,229Z"/><path class="cls-5" d="M205.51,226.49l3,1.72c.26.14.22.38-.07.55l-2.84,1.65a1.06,1.06,0,0,1-1,0l-3-1.72a.31.31,0,0,1,0-.55l2.85-1.65A1,1,0,0,1,205.51,226.49Z"/><path class="cls-5" d="M201.24,224l3,1.73c.25.15.22.39,0,.55L201.37,228a1.08,1.08,0,0,1-1,0l-3-1.73c-.25-.13-.22-.38.07-.55l2.84-1.64A1.13,1.13,0,0,1,201.24,224Z"/><path class="cls-5" d="M197.06,221.61l3,1.73c.24.13.21.38-.07.54l-2.85,1.64a1.08,1.08,0,0,1-1,0l-3-1.73c-.24-.14-.22-.38.07-.55l2.85-1.64A1,1,0,0,1,197.06,221.61Z"/><path class="cls-5" d="M192.88,219.17l3,1.72c.24.14.22.39-.07.55l-2.92,1.65a1.06,1.06,0,0,1-.95,0l-3-1.72c-.24-.15-.22-.38.07-.55l2.85-1.65A1,1,0,0,1,192.88,219.17Z"/><path class="cls-5" d="M183.39,213.72l8.21,4.77c.24.14.22.38-.07.55l-2.85,1.59a1.06,1.06,0,0,1-1,0l-8.21-4.78c-.25-.14-.22-.39.06-.55l2.85-1.64A1,1,0,0,1,183.39,213.72Z"/><path class="cls-5" d="M239.3,246l4.08,2.39c.24.14.2.38-.07.55l-2.86,1.64a1.06,1.06,0,0,1-.95,0l-4.07-2.38c-.24-.15-.22-.39.07-.55l2.85-1.65A1,1,0,0,1,239.3,246Z"/><path class="cls-5" d="M166.84,223.27l60,34.62c.24.14.22.38-.07.55l-1.42.82a1.06,1.06,0,0,1-1,0l-60-34.62c-.24-.14-.2-.39.07-.55l1.42-.82A1,1,0,0,1,166.84,223.27Z"/><polygon id="_Контур_7" data-name=" Контур 7" class="cls-12" points="237.04 224.81 236.65 225.03 226.28 231.01 207.85 220.38 207.47 220.16 218.22 213.95 237.04 224.81"/><polygon id="_Контур_8" data-name=" Контур 8" class="cls-13" points="236.65 225.03 226.28 231.01 207.85 220.38 218.22 214.4 236.65 225.03"/><path id="_Контур_9" data-name=" Контур 9" class="cls-13" d="M266.6,238.78v.95a3.8,3.8,0,0,1-1.89,3.28l-36.54,21.1a3.8,3.8,0,0,1-3.77,0l-66.12-38.2a3.82,3.82,0,0,1-1.89-3.29v-.92l69.92,40.36Z"/><path class="cls-6" d="M229.26,171.45,217,164.51s-11.25,10.75-11.25,11.18h0A156.49,156.49,0,0,0,193.21,192c-1.54,2.19-3.2,3.5-6.6,7.37s-6.45,9-7.37,13.07-.61,5.54.14,6c.93.56,1.83-.13,2.47-1.93a27.19,27.19,0,0,1,3.86-8.36s-1.57,3.92-2.31,6.32a24.66,24.66,0,0,0-1.11,6.49c0,2.09,2.57,3.58,3.25,1.79s.72-3.34,1.87-6.89a26.5,26.5,0,0,1,2.45-5.46,45.47,45.47,0,0,0-1.3,7.23c-.25,3.36.35,4.71.8,5.57s2.28,1.19,2.83-1.09c.49-2.09.21-4.84,1.77-8.75,1.2-2.86,2.39-4.78,2.61-4.26s-.52,2.13-.27,4.65,2,4.48,3.38,4.08,1.13-.34,1.29-2.9,1.13-4.86,1.05-8.45a15.6,15.6,0,0,1,1.09-7.34c1.06-2.72,6.23-8.79,12.06-14.57Z"/><path id="_Контур_10" data-name=" Контур 10" class="cls-7" d="M225.22,262.62a4.48,4.48,0,0,1-3.86-.3l-65.83-38a4.49,4.49,0,0,1-2.17-3.13l-7.16-43a4.45,4.45,0,0,1,0-.73,4.49,4.49,0,0,1,1.32-3.19l68.41,39.5a3.33,3.33,0,0,1,1.6,2.38Z"/><path id="_Контур_11" data-name=" Контур 11" class="cls-13" d="M226.31,262.06l-.46.26a5.76,5.76,0,0,1-.61.3l-7.79-46.5a3.36,3.36,0,0,0-1.6-2.39l-68.41-39.5a4.18,4.18,0,0,1,.92-.69l68.54,39.57a3.29,3.29,0,0,1,1.6,2.31Z"/></g></g><path class="cls-11" d="M237.26,146.61s-5.16-.27-7.29-3.27c.4-5.14,7-24.66,20.2-26.12a24.65,24.65,0,0,0-8.27,10C239.5,133,237.26,146.61,237.26,146.61Z"/></g><ellipse class="cls-14" cx="87.22" cy="200.38" rx="8.21" ry="4.74"/><ellipse class="cls-15" cx="88.39" cy="199.5" rx="8.21" ry="4.74"/><polygon class="cls-15" points="77.39 183.28 80.27 199.83 96.58 199.83 99.38 183.4 77.39 183.28"/><ellipse class="cls-16" cx="88.39" cy="183.08" rx="11.01" ry="6.35"/><path class="cls-17" d="M88.39,188a14.41,14.41,0,0,1-7.08-1.67c-1.6-.93-2.52-2.12-2.52-3.28s.92-2.39,2.52-3.28a15.82,15.82,0,0,1,14.16,0c1.61.93,2.53,2.12,2.53,3.28s-.92,2.39-2.53,3.28A14.33,14.33,0,0,1,88.39,188Z"/><path class="cls-18" d="M93.13,178.08a13.91,13.91,0,0,0-4.67-11.45h0a13.91,13.91,0,0,0-4.67,11.45l-6.29-.6c2.66,10,11,9.15,11,9.15h0c.62,0,8.35.45,10.95-9.15Z"/><path class="cls-19" d="M88.46,186.65s-.56-7.8-11-13C77.43,173.61,75,186.55,88.46,186.65Z"/><path class="cls-19" d="M88.39,186.65s.62-7.81,11-13C99.42,173.61,101.89,186.55,88.39,186.65Z"/><ellipse class="cls-14" cx="306.1" cy="308.71" rx="10.72" ry="6.18"/><path class="cls-15" d="M317.87,307.78V291.32l-21.4.54v15.22c-.4,1.84.61,3.75,3,5.16a16.8,16.8,0,0,0,15.16,0C316.84,311,317.88,309.43,317.87,307.78Z"/><ellipse class="cls-16" cx="307.15" cy="291.32" rx="10.72" ry="6.18"/><path class="cls-17" d="M316.17,291.32c0,1-.83,2.06-2.29,2.91a13.7,13.7,0,0,1-6,1.57h-.69a14.09,14.09,0,0,1-6.74-1.59c-1.45-.85-2.29-1.9-2.29-2.92s.84-2.06,2.29-2.9a13.86,13.86,0,0,1,6.74-1.58h.69a13.4,13.4,0,0,1,6,1.57C315.34,289.25,316.17,290.32,316.17,291.32Z"/><path class="cls-20" d="M316.17,291.32c0,1-.83,2.06-2.29,2.91a12.44,12.44,0,0,1-12.09,0c-1.46-.85-2.3-1.9-2.3-2.91s.84-2.07,2.3-2.9a12.39,12.39,0,0,1,12.09,0C315.34,289.25,316.17,290.32,316.17,291.32Z"/><path class="cls-21" d="M316.3,299,314,297.65l-1.1.64,1.1.65v.41l2.14,1.2-.06.39a18,18,0,0,1,1.41,2.31l.08-.08v5.32c0,1.39-.82.92-1.19.71L314,307.83l-1.1.63,1.1.65v.42l2.39,1.38a4.13,4.13,0,0,0,.77.35l-.14.67,1.2-.71h0a2.11,2.11,0,0,0,.72-1.87v-5.56A6.39,6.39,0,0,0,316.3,299Z"/><path class="cls-22" d="M315.31,311.59l-2.39-1.38V308.5l2.39,1.38c.36.21,1.2.68,1.2-.71v-5.55a3.27,3.27,0,0,0-1.39-2.39L313,300v-1.7l2.27,1.31A6.43,6.43,0,0,1,318,304.5v5.55C318,311.52,317.26,312.71,315.31,311.59Z"/></g></g></svg>