<svg id="Calque_1" data-name="Calque 1" xmlns="http://www.w3.org/2000/svg" viewBox="0 0 449.09 647.5"><defs><style>.cls-1{fill:#d6d8e5;opacity:0.4;isolation:isolate;}.cls-2{fill:#38226d;}.cls-3{fill:#9c73ff;}.cls-4{fill:#8c50ff;}.cls-5{fill:#ffcea9;}.cls-6{fill:#f4f4f4;}.cls-7{fill:#3a2c6d;}.cls-8{fill:#ededed;}</style></defs><title>echanges</title><g id="Слой_2" data-name="Слой 2"><g id="Слой_1-2" data-name="Слой 1-2"><ellipse class="cls-1" cx="81.65" cy="452.66" rx="79.7" ry="46.03"/><g id="Men_13" data-name="Men 13"><path class="cls-2" d="M40.77,438.52c5.7,4.65,14.11.4,14.53.82a255.63,255.63,0,0,0,21.07,17.54c3.54,2.81,9.09,6.53,8,11.92-1.8,9.61-17.17,6.64-23,3.7s-10.55-7.81-16-11.21c-4-2.44-7.79-3.71-8.39-8.65C36.66,449.66,39.75,438.4,40.77,438.52Z"/><path class="cls-3" d="M37.12,450.64c.74,4.74,4.55,6,8.45,8.47,5.57,3.46,10.49,8.47,16.3,11.41,5.37,2.7,18.74,5.4,22.5-1.46-2,9.27-17.15,6.36-22.9,3.44s-10.55-7.81-16-11.21c-4-2.44-7.79-3.71-8.39-8.65A9.54,9.54,0,0,1,37.12,450.64Z"/><path class="cls-2" d="M90.28,420.12c5.69,4.65,15.68-.44,16,0a224,224,0,0,0,18.8,17c3.56,2.81,9.11,6.53,8,11.92-1.81,9.61-17.18,6.64-23,3.7s-10.55-7.81-16-11.21c-4-2.45-7.76-3.71-8.36-8.65C85.5,429.87,89.26,420,90.28,420.12Z"/><path class="cls-3" d="M86,431.64c.76,4.74,4.56,6,8.45,8.47,5.58,3.46,10.51,8.46,16.29,11.41,5.37,2.7,18.76,5.4,22.53-1.46-2,9.27-17.18,6.36-22.93,3.44s-10.53-7.81-16-11.21c-3.91-2.44-7.77-3.71-8.37-8.65A8.36,8.36,0,0,1,86,431.64Z"/><path id="_Контур_7" data-name=" Контур 7" class="cls-4" d="M40.43,227.94c.28,8.63,3,46.05,4.16,65.93s1.48,44.05,1.48,44.05-3.42,14.45-5.64,31.43,0,70.58,0,70.58a13.55,13.55,0,0,0,14.61,0S64.17,397,68.4,377.72s5-30.47,7.17-42.45c2.64-14.49,8.36-82.08,8.36-82.08l2.29.14,6,76.34A86.2,86.2,0,0,0,88.38,347c-1.66,12.43,1.74,75,1.74,75a15.2,15.2,0,0,0,15.8-.64s15.25-82.87,15.25-95.49c0-8.32-1.42-118.3-1.42-118.3Z"/><path id="_Контур_8" data-name=" Контур 8" class="cls-5" d="M61.11,61.24s1,18.8.56,20.46-8.65,7.19-11,9.17,13,17.16,20.48,20.59,31.21-5.61,31.63-17.26-4-21.45-7.7-22S61.11,61.24,61.11,61.24Z"/><path class="cls-5" d="M112.62,96.12c1.11-8.29-4.36-16.18.95-22.79,18.56,18.2,16.19,66.38,20.42,97.19,13.77,14.41,41.48,28.61,49.29,32,1.42.64,2.64,1.32,2.36,2.87-1.12,6-2.86,8.28-6.44,14-18.34-7.91-31.56-12.45-54.46-34.22a49.8,49.8,0,0,1-5.81-7.6C112.38,158.15,110.74,110.43,112.62,96.12Z"/><path id="_Контур_9" data-name=" Контур 9" class="cls-6" d="M59,85s13.65,20.34,32.69,22.34c6-6,6.55-27-1.76-33.72,0,0,7.65-6.16,12.87-5a27,27,0,0,1,11.76,15,122.77,122.77,0,0,1,6.7,43.54c-.32,20,0,80.93,0,80.93s-2.66,12.89-19.88,22.48-30,10.53-41.7,7.81c-9.65-2.24-17.62-5.65-20.92-12.63.86-14,7.1-50.5,4.76-68.08s-6-30.73-7-44.94,1.89-14,9-19A112.76,112.76,0,0,1,59,85Z"/><path id="_Контур_10" data-name=" Контур 10" class="cls-5" d="M103.68,33.21h0C101.43,18.62,90.92,7.54,75.87,8.39A29,29,0,0,0,48.48,39,28.75,28.75,0,0,0,61.11,61.24a29,29,0,0,0,2.34,6.39c5.31,6.23,21.43,10,26,9.41,6-.84,9.17-3.32,12-9.81C106.48,55.72,104.92,40.4,103.68,33.21Z"/><path class="cls-7" d="M61.11,61.24h0l1.38-12.73S52,21.52,76.69,26.7c16.21,3.41,20.3,4.89,25.24-6S89.44,0,68.76,2.68a28.59,28.59,0,0,0-25.59,29C43.71,39.76,45.85,56,61.11,61.24Z"/><path class="cls-5" d="M32.32,104.23c7.13-2,1.7-.34,7.13-2C58,120.44,55.7,151.64,59.91,182.47c10.25,16.94,48.29,39.9,48.29,39.9.48,3.29-.68,4.25-4.79,10.88-18.31-7.91-33.67-14.74-56.58-36.48-.9-.86-2.22-1.08-2.6-2.27C37.68,174.82,30.42,118.56,32.32,104.23Z"/><polygon class="cls-6" points="201.58 142.21 173.93 236.75 113.27 261 135.39 168.9 201.58 142.21"/><path class="cls-5" d="M98.63,223c.9-3.22,3.24-2.42,5.87-1.62a15.29,15.29,0,0,0,9,.78c2.5-.78,4.3-2.92,6.42-4.34a8.33,8.33,0,0,1,4-1.16c-.12.82-1.38,5.62-1.38,5.62s13.29.14,14.65-.14a2.25,2.25,0,0,1,2,3.69l.9-.14c2.73-.6,3.89,3.56,1.15,4.18-.73.16-1.47.24-2.23.34,1.78.68,2.23,3.63,0,4l-.68.12a2.51,2.51,0,0,1-1,.14h-.42a2.38,2.38,0,0,1-1.87,2.8l-.13,0c-6.49.86-16,3.44-21.9-1.9a36.8,36.8,0,0,1-11.78-3.19C97.65,230.52,97.55,226.88,98.63,223Z"/><path class="cls-5" d="M165,215.29h.9a2.25,2.25,0,0,1,1.26-4c1.4,0,15.08-2.86,15.08-2.86l1.64-5.63c0-.32,2.38,1.12,2.46,1.18a9.21,9.21,0,0,1,4.13,6.85,14.6,14.6,0,0,1-4,10.55,13.53,13.53,0,0,1-9.27,4c-1.66.1-3.26.18-4.68.3a2.38,2.38,0,0,1-2.38-2.39v0h-.42a2.07,2.07,0,0,1-1,0H168c-2.32,0-2.5-2.88-.92-4-.74,0-1.5.14-2.24.14C162,219.59,162.12,215.27,165,215.29Z"/><path class="cls-8" d="M120.37,108.45s7-.36,9.91-4.44c-.54-7-9.49-33.52-27.47-35.5a33.31,33.31,0,0,1,11.26,13.57C117.33,90.07,120.37,108.45,120.37,108.45Z"/><path class="cls-8" d="M29.08,143.51S47,149.68,59.59,139.3c1.38-2.38-7.31-32.83-7.31-32.83S44.77,90.89,33,97.08,29.08,143.51,29.08,143.51Z"/></g><ellipse class="cls-1" cx="367.3" cy="600.6" rx="79.7" ry="46.03"/><g id="Men_1" data-name="Men 1"><path id="_Контур_18" data-name=" Контур 18" class="cls-5" d="M431.9,250.78c.9,8,10.39,42.23,8.35,54s-34.41,31.39-34.41,31.39l-4.49-20,18-17.58-5-33.37Z"/><path id="_Контур_19" data-name=" Контур 19" class="cls-8" d="M406.86,217a14.14,14.14,0,0,1,18,5.44c4.76,7.89,9.71,35,10.17,39.59,0,0-6.69,9.22-16.72,7.68Z"/><path class="cls-2" d="M369.86,599.21a27.62,27.62,0,0,1-21-2.54c-5,.16-32.46-11.57-36.18-1.72-3.27,8.63,8.61,16.62,14.95,18.16,13.84,3.34,24,10.25,29.63,11.41,4.15.88,9.51,1.46,12.82-1.8C374.08,618.82,373.74,604.36,369.86,599.21Z"/><path class="cls-3" d="M357.3,622.14c-5.54-1.16-15.79-8-29.63-11.43-5.32-1.28-14.47-7.11-15.39-14-1.24,8,9.47,15,15.39,16.44,13.84,3.34,24,10.25,29.63,11.41,4.15.88,9.51,1.46,12.82-1.8a8.44,8.44,0,0,0,1.82-3.3A16.6,16.6,0,0,1,357.3,622.14Z"/><path class="cls-2" d="M414.41,579.25a27.79,27.79,0,0,1-21-2.52c-5,.14-32.45-11.59-36.18-1.74-3.26,8.63,8.61,16.62,15,18.16,13.84,3.34,24,10.25,29.63,11.43,4.17.86,9.51,1.44,12.82-1.82C418.53,598.85,418.19,584.4,414.41,579.25Z"/><path class="cls-3" d="M401.75,602.18c-5.54-1.16-15.8-8-29.63-11.43-5.33-1.29-14.48-7.09-15.4-14-1.24,8,9.47,15,15.4,16.42,13.83,3.34,24,10.25,29.63,11.43,4.17.86,9.51,1.44,12.82-1.82a8.44,8.44,0,0,0,1.82-3.3A16.61,16.61,0,0,1,401.75,602.18Z"/><path id="_Контур_20" data-name=" Контур 20" class="cls-4" d="M414.85,504.79a165.56,165.56,0,0,0-6.33-30s1.9-25.91,2.84-50.47c1.08-27.87,10.73-52.4,3.11-74.64l-86,19.12s5.21,111.12,6.37,124.57a253,253,0,0,0,3.84,31.16c4,21.56,10.32,72.87,10.32,72.87,9.09,5.29,21,2.37,21,2.37s-.64-64.89-1.24-80.43c-.7-19-1.28-17.54-1.28-17.54l2.86-47.21,1.86-23.5s2.38,17.25,4,32.67c1.35,13.43,4.59,25.59,8.21,50.61,3.15,21.71,8.25,65.31,8.25,65.31,9.09,5.31,21.44.9,21.44.9S417.31,523.61,414.85,504.79Z"/><path id="_Контур_21" data-name=" Контур 21" class="cls-5" d="M402.39,217.47c-6.54.32-11.41,2-12.23,0a84.36,84.36,0,0,1-1.5-10.23c.76-1.91,1.4-4,1.4-4,8.23-5.06,10.83-14,11.91-24.3,1.84-17.7-7.73-33.18-25.41-35-16.63-1.72-28.87,10-32.13,26-1.76,8-5.26,22.9-.52,36,2.64,7.28,6,13.07,9.45,14.19a79.19,79.19,0,0,0,9.85-.86h0s.88,4.92,1.5,8,.36,4.82-5.9,8.69,9.49,11.83,19.8,11,21.78-6.83,24.94-13.58C407.1,226,406.8,217.25,402.39,217.47Z"/><path id="_Контур_22" data-name=" Контур 22" class="cls-6" d="M392.82,218.45c1.8,4.5-2.8,10-15.09,13.91s-13.42-1.1-13.42-1.1-18,8.21-23.9,12.32c-7.37,5.16-10.66,20-11.66,45.3-1.14,29.18-1.24,72.44-.28,79.91,0,0,13.8,13.75,31.46,12.31S407.3,364,414.51,352c-.2-25.57-3.21-29.73.94-44.47,9.49-33.73,14.47-47.55,9.87-70-3.81-18.48-9.13-20.76-16.42-20.58A152.09,152.09,0,0,0,392.82,218.45Z"/><path id="_Контур_23" data-name=" Контур 23" class="cls-5" d="M301,313c14.5,3.66,17.9-5.49,19.81-13,4.6-18.32,7.08-34.86,10.53-45.27,4-12.26,8.29-14.2,14.23-16.6,7-2.8,13,3.1,10.69,18.72-2.76,18.46-6.36,31.41-13.27,53.26-1.8,5.7-5.85,15.83-11.89,20.74-7.49,6-18.74,5.78-35.78,1.54-7.27-1.8-15.24-6.15-29-12.55-3.69-1.73-6.57-2.87-13.64-6.17s-14.45-8.81-18.16-14.17-4.2-8-3.44-9.13c.94-1.55,2.62-1.21,4.6,1.06A39.35,39.35,0,0,0,246.15,301s-4.59-4.73-7.07-7.79a39.47,39.47,0,0,1-5.49-9c-1.3-3.12,1.4-7.37,3.45-5.15s3,4.51,6.78,9a38.07,38.07,0,0,0,6.71,6.41,75.74,75.74,0,0,1-6.19-10,16.49,16.49,0,0,1-2.26-9c.1-1.64,2.42-3.58,4.59-.48,2,2.78,3.24,7.15,7.78,11.89,3.31,3.43,6.13,5.41,6.21,4.45s-2-2.83-3.18-6.83,0-8.23,2.22-8.69,1.78-.34,3.54,3.4,4.51,6.51,6.59,12a24.73,24.73,0,0,0,6,10.25C279.36,305.34,287.23,309.53,301,313Z"/><path id="_Контур_24" data-name=" Контур 24" class="cls-8" d="M350.94,235.59c-9.67-1.42-16.5,2.92-20.78,17.6s-7.25,26.68-7.25,26.68a26.24,26.24,0,0,0,16.19,10.76c11.58,2.8,15.74-2.73,15.74-2.73s3.23-15.35,5.23-25.8S362.91,237.35,350.94,235.59Z"/><path class="cls-7" d="M344.89,167.69s-15.3-23.22,17.84-28c23.89-3.4,39.24,12,41,28.6,1.71,15.91-8.1,32.43-15.17,39-3.45,1.22-10.89,2-20.64-2.51a115.64,115.64,0,0,1-.46-13S379.11,167.27,344.89,167.69Z"/></g></g></g></svg>