<?xml version="1.0" encoding="utf-8"?>
<!-- Generator: Adobe Illustrator 22.1.0, SVG Export Plug-In . SVG Version: 6.00 Build 0)  -->
<svg version="1.1" id="Слой_1" xmlns="http://www.w3.org/2000/svg" xmlns:xlink="http://www.w3.org/1999/xlink" x="0px" y="0px"
	 viewBox="0 0 368.6 387" style="enable-background:new 0 0 368.6 387;" xml:space="preserve">
<style type="text/css">
	.st0{clip-path:url(#SVGID_2_);fill:#595D69;}
	.st1{clip-path:url(#SVGID_4_);fill:#616774;}
	.st2{clip-path:url(#SVGID_8_);fill:#E7E9F2;}
	.st3{clip-path:url(#SVGID_10_);fill:#323846;}
	.st4{clip-path:url(#SVGID_12_);fill:#323846;}
	.st5{clip-path:url(#SVGID_14_);fill:#323846;}
	.st6{clip-path:url(#SVGID_16_);fill:#323846;}
	.st7{clip-path:url(#SVGID_18_);fill:#323846;}
	.st8{clip-path:url(#SVGID_20_);fill:#323846;}
	.st9{clip-path:url(#SVGID_22_);fill:#9FA0A2;}
	.st10{clip-path:url(#SVGID_24_);fill:#A1A2A4;}
	.st11{clip-path:url(#SVGID_26_);fill:#F4F6F9;}
	.st12{clip-path:url(#SVGID_28_);fill:#595D69;}
	.st13{clip-path:url(#SVGID_30_);fill:#616774;}
	.st14{clip-path:url(#SVGID_32_);fill:#D5D7E2;}
	.st15{clip-path:url(#SVGID_34_);fill:#616774;}
	.st16{clip-path:url(#SVGID_36_);fill:#595D69;}
	.st17{opacity:0.8;clip-path:url(#SVGID_38_);}
	.st18{fill:#DFE1EA;}
	.st19{fill:#3A4151;}
	.st20{fill:#D5D7E2;}
	.st21{clip-path:url(#SVGID_40_);fill:#FFCEA9;}
	.st22{clip-path:url(#SVGID_42_);fill:#38226D;}
	.st23{clip-path:url(#SVGID_44_);fill:#9C73FF;}
	.st24{clip-path:url(#SVGID_46_);fill:#38226D;}
	.st25{clip-path:url(#SVGID_48_);fill:#9C73FF;}
	.st26{clip-path:url(#SVGID_50_);fill:#8C50FF;}
	.st27{clip-path:url(#SVGID_52_);fill:#FFCEA9;}
	.st28{clip-path:url(#SVGID_54_);fill:#F4F4F4;}
	.st29{clip-path:url(#SVGID_56_);fill:#FFCEA9;}
	.st30{clip-path:url(#SVGID_58_);fill:#FFCEA9;}
	.st31{clip-path:url(#SVGID_60_);fill:#3A2C6D;}
	.st32{clip-path:url(#SVGID_62_);fill:#EDEDED;}
	.st33{clip-path:url(#SVGID_64_);fill:#EDEDED;}
	.st34{clip-path:url(#SVGID_66_);fill:#666666;}
	.st35{clip-path:url(#SVGID_68_);fill:#666666;}
</style>
<g>
	<defs>
		<rect id="SVGID_1_" x="-131.4" y="0" width="500" height="500"/>
	</defs>
	<clipPath id="SVGID_2_">
		<use xlink:href="#SVGID_1_"  style="overflow:visible;"/>
	</clipPath>
	<path class="st0" d="M99,175c0-0.3,0.1-0.6,0.2-0.9V174c0.1-0.3,0.2-0.6,0.3-0.9l0,0c0.1-0.3,0.3-0.6,0.5-0.9l0,0
		c0.2-0.3,0.4-0.6,0.6-0.9c0,0,0-0.1,0.1-0.1c0.2-0.2,0.4-0.5,0.6-0.7l0.1-0.1c0.2-0.2,0.3-0.3,0.5-0.5c0.1-0.1,0.2-0.1,0.2-0.2
		c0.2-0.2,0.5-0.4,0.8-0.5s0.5-0.3,0.7-0.3h0.1c0.2-0.1,0.4-0.1,0.7-0.1c0,0,0,0,0.1,0c0.2,0,0.4,0,0.6,0l0,0c0.2,0,0.4,0.1,0.6,0.2
		l-4.5-2.6l0,0c-0.1,0-0.1-0.1-0.2-0.1c-0.1,0-0.1-0.1-0.2-0.1h-0.1l0,0l0,0c-0.1,0-0.2,0-0.2,0c-0.1,0-0.2,0-0.3,0h-0.1
		c0,0,0,0-0.1,0s-0.1,0-0.2,0c-0.1,0-0.2,0-0.4,0.1c0,0-0.1,0-0.2,0.1h-0.1c-0.1,0-0.1,0-0.2,0.1c-0.2,0.1-0.4,0.2-0.6,0.3
		c-0.3,0.1-0.5,0.3-0.8,0.5c-0.1,0.1-0.2,0.1-0.2,0.2c-0.1,0.1-0.2,0.2-0.4,0.3c-0.1,0.1-0.1,0.1-0.2,0.2l-0.1,0.1
		c-0.1,0.1-0.1,0.1-0.2,0.2c-0.1,0.1-0.2,0.3-0.3,0.4l-0.1,0.1c0,0,0,0-0.1,0.1l-0.1,0.1c-0.1,0.1-0.2,0.2-0.2,0.3
		c-0.1,0.1-0.1,0.2-0.2,0.3l0,0l0,0c-0.1,0.1-0.1,0.2-0.2,0.3c-0.1,0.1-0.1,0.2-0.2,0.3c0,0.1-0.1,0.2-0.1,0.3l0,0l0,0
		c-0.1,0.1-0.1,0.2-0.1,0.4c0,0.1-0.1,0.3-0.1,0.4c0,0.1,0,0.1-0.1,0.2v0.1v0.1c0,0.2-0.1,0.3-0.1,0.5c0,0.1,0,0.2,0,0.3v0.1v0.1
		c0,0.3-0.1,0.5-0.1,0.8c0,1.3,0.4,2.1,1.2,2.6l4.5,2.6c-0.7-0.4-1.2-1.3-1.2-2.6c0-0.3,0-0.6,0.1-0.9C99,175.1,99,175,99,175"/>
</g>
<g>
	<defs>
		<rect id="SVGID_3_" x="-131.4" y="0" width="500" height="500"/>
	</defs>
	<clipPath id="SVGID_4_">
		<use xlink:href="#SVGID_3_"  style="overflow:visible;"/>
	</clipPath>
	<path class="st1" d="M102.9,169.1c2.2-1.3,4-0.3,4,2.3c0,2.5-1.8,5.6-4,6.9c-2.2,1.3-4,0.3-4-2.3
		C98.9,173.5,100.7,170.4,102.9,169.1"/>
</g>
<g>
	<defs>
		<rect id="SVGID_5_" x="-131.4" y="0" width="500" height="500"/>
	</defs>
	<clipPath id="SVGID_6_">
		<use xlink:href="#SVGID_5_"  style="overflow:visible;"/>
	</clipPath>
</g>
<g>
	<defs>
		<rect id="SVGID_7_" x="-131.4" y="0" width="500" height="500"/>
	</defs>
	<clipPath id="SVGID_8_">
		<use xlink:href="#SVGID_7_"  style="overflow:visible;"/>
	</clipPath>
	<path class="st2" d="M71.4,376.8c-15.5,9-40.8,9-56.3,0s-15.5-23.5,0-32.5s40.8-9,56.3,0C87,353.3,87,367.8,71.4,376.8"/>
</g>
<g>
	<defs>
		<rect id="SVGID_9_" x="-131.4" y="0" width="500" height="500"/>
	</defs>
	<clipPath id="SVGID_10_">
		<use xlink:href="#SVGID_9_"  style="overflow:visible;"/>
	</clipPath>
	<path class="st3" d="M206.2,239.3c-0.1,0.1-0.1,0.1-0.2,0.2C206.1,239.5,206.1,239.4,206.2,239.3L206.2,239.3"/>
</g>
<g>
	<defs>
		<rect id="SVGID_11_" x="-131.4" y="0" width="500" height="500"/>
	</defs>
	<clipPath id="SVGID_12_">
		<use xlink:href="#SVGID_11_"  style="overflow:visible;"/>
	</clipPath>
	<path class="st4" d="M206.3,239.1c0-0.1,0.1-0.1,0.1-0.2l0,0C206.4,239,206.3,239.1,206.3,239.1"/>
</g>
<g>
	<defs>
		<rect id="SVGID_13_" x="-131.4" y="0" width="500" height="500"/>
	</defs>
	<clipPath id="SVGID_14_">
		<use xlink:href="#SVGID_13_"  style="overflow:visible;"/>
	</clipPath>
	<path class="st5" d="M205.7,239.8L205.7,239.8c-0.1,0.1-0.1,0.1-0.2,0.2C205.5,239.9,205.6,239.9,205.7,239.8"/>
</g>
<g>
	<defs>
		<rect id="SVGID_15_" x="-131.4" y="0" width="500" height="500"/>
	</defs>
	<clipPath id="SVGID_16_">
		<use xlink:href="#SVGID_15_"  style="overflow:visible;"/>
	</clipPath>
	<path class="st6" d="M199.2,238.7c0,0.1,0,0.1,0,0.2C199.3,238.8,199.3,238.8,199.2,238.7"/>
</g>
<g>
	<defs>
		<rect id="SVGID_17_" x="-131.4" y="0" width="500" height="500"/>
	</defs>
	<clipPath id="SVGID_18_">
		<use xlink:href="#SVGID_17_"  style="overflow:visible;"/>
	</clipPath>
	<path class="st7" d="M199.4,239.1c0,0.1,0,0.1,0.1,0.2C199.4,239.2,199.4,239.2,199.4,239.1"/>
</g>
<g>
	<defs>
		<rect id="SVGID_19_" x="-131.4" y="0" width="500" height="500"/>
	</defs>
	<clipPath id="SVGID_20_">
		<use xlink:href="#SVGID_19_"  style="overflow:visible;"/>
	</clipPath>
	<path class="st8" d="M199.7,239.5l0.1,0.1C199.8,239.6,199.7,239.6,199.7,239.5"/>
</g>
<g>
	<defs>
		<rect id="SVGID_21_" x="-131.4" y="0" width="500" height="500"/>
	</defs>
	<clipPath id="SVGID_22_">
		<use xlink:href="#SVGID_21_"  style="overflow:visible;"/>
	</clipPath>
	<polygon class="st9" points="323.4,132.9 324.6,132.2 324.1,298.2 322.9,298.9 	"/>
</g>
<g>
	<defs>
		<rect id="SVGID_23_" x="-131.4" y="0" width="500" height="500"/>
	</defs>
	<clipPath id="SVGID_24_">
		<use xlink:href="#SVGID_23_"  style="overflow:visible;"/>
	</clipPath>
	<polygon class="st10" points="107,7.9 108.2,7.2 324.6,132.2 323.4,132.9 	"/>
</g>
<g>
	<defs>
		<rect id="SVGID_25_" x="-131.4" y="0" width="500" height="500"/>
	</defs>
	<clipPath id="SVGID_26_">
		<use xlink:href="#SVGID_25_"  style="overflow:visible;"/>
	</clipPath>
	<polygon class="st11" points="323.4,132.9 322.9,298.9 106.5,173.9 107,7.9 	"/>
</g>
<g>
	<defs>
		<rect id="SVGID_27_" x="-131.4" y="0" width="500" height="500"/>
	</defs>
	<clipPath id="SVGID_28_">
		<use xlink:href="#SVGID_27_"  style="overflow:visible;"/>
	</clipPath>
	<path class="st12" d="M105.8,9c0-0.3,0.1-0.6,0.2-0.9V8c0.1-0.3,0.2-0.6,0.3-0.9l0,0c0.1-0.3,0.3-0.6,0.5-0.9l0,0
		c0.2-0.3,0.4-0.6,0.6-0.9c0,0,0-0.1,0.1-0.1c0.2-0.2,0.4-0.5,0.6-0.7l0.1-0.1c0.2-0.2,0.3-0.3,0.5-0.5c0.1-0.1,0.2-0.1,0.2-0.2
		c0.2-0.2,0.5-0.4,0.8-0.5s0.5-0.3,0.7-0.3h0.1c0.2-0.1,0.4-0.1,0.7-0.1c0,0,0,0,0.1,0c0.2,0,0.4,0,0.6,0l0,0c0.2,0,0.4,0.1,0.6,0.2
		L108,0.4l0,0c-0.1,0-0.1-0.1-0.2-0.1c-0.1,0-0.1-0.1-0.2-0.1h-0.1l0,0l0,0c-0.1,0-0.2,0-0.2,0c-0.1,0-0.2,0-0.3,0h-0.1
		c0,0,0,0-0.1,0s-0.1,0-0.2,0c-0.1,0-0.2,0-0.4,0.1c0,0-0.1,0-0.2,0.1h-0.1c-0.1,0-0.1,0-0.2,0.1c-0.2,0.1-0.4,0.2-0.6,0.3
		c-0.3,0.1-0.5,0.3-0.8,0.5c-0.1,0.1-0.2,0.1-0.2,0.2c-0.1,0.1-0.2,0.2-0.4,0.3c-0.1,0.1-0.1,0.1-0.2,0.2l-0.1,0.1
		c-0.1,0.1-0.1,0.1-0.2,0.2c-0.1,0.1-0.2,0.3-0.3,0.4l-0.1,0.1c0,0,0,0-0.1,0.1L102.6,3c-0.1,0.1-0.2,0.2-0.2,0.3
		c-0.1,0.1-0.1,0.2-0.2,0.3l0,0l0,0c-0.1,0.1-0.1,0.2-0.2,0.3c-0.1,0.1-0.1,0.2-0.2,0.3c0,0.1-0.1,0.2-0.1,0.3l0,0l0,0
		c-0.1,0.1-0.1,0.2-0.1,0.4c0,0.1-0.1,0.3-0.1,0.4s0,0.1-0.1,0.2v0.1v0.1c0,0.2-0.1,0.3-0.1,0.5c0,0.1,0,0.2,0,0.3v0.1v0.1
		c0,0.3-0.1,0.5-0.1,0.8c0,1.3,0.5,2.1,1.2,2.6l4.5,2.6c-0.7-0.4-1.2-1.3-1.2-2.6c0-0.3,0-0.6,0.1-0.9C105.8,9.1,105.8,9.1,105.8,9"
		/>
</g>
<g>
	<defs>
		<rect id="SVGID_29_" x="-131.4" y="0" width="500" height="500"/>
	</defs>
	<clipPath id="SVGID_30_">
		<use xlink:href="#SVGID_29_"  style="overflow:visible;"/>
	</clipPath>
	<path class="st13" d="M109.7,3.2c2.2-1.3,4-0.3,4,2.3c0,2.5-1.8,5.6-4,6.9s-4,0.3-4-2.3S107.5,4.4,109.7,3.2"/>
</g>
<g>
	<defs>
		<rect id="SVGID_31_" x="-131.4" y="0" width="500" height="500"/>
	</defs>
	<clipPath id="SVGID_32_">
		<use xlink:href="#SVGID_31_"  style="overflow:visible;"/>
	</clipPath>
	<path class="st14" d="M319.6,133.5l-210-121.2c-1.8-1-2.4-3.3-1.4-5.1s3.3-2.4,5.1-1.4l210,121.2c1.8,1,2.4,3.3,1.4,5.1
		C323.6,133.9,321.3,134.5,319.6,133.5"/>
</g>
<g>
	<defs>
		<rect id="SVGID_33_" x="-131.4" y="0" width="500" height="500"/>
	</defs>
	<clipPath id="SVGID_34_">
		<use xlink:href="#SVGID_33_"  style="overflow:visible;"/>
	</clipPath>
	<path class="st15" d="M323.4,134.9c0-0.3,0.1-0.6,0.2-0.9v-0.1c0.1-0.3,0.2-0.6,0.3-0.9l0,0c0.1-0.3,0.3-0.6,0.5-0.9l0,0
		c0.2-0.3,0.4-0.6,0.6-0.9c0,0,0-0.1,0.1-0.1c0.2-0.2,0.4-0.5,0.6-0.7l0.1-0.1c0.2-0.2,0.3-0.3,0.5-0.5c0.1-0.1,0.2-0.1,0.2-0.2
		c0.2-0.2,0.5-0.4,0.8-0.5s0.5-0.3,0.7-0.3h0.1c0.2-0.1,0.4-0.1,0.7-0.1c0,0,0,0,0.1,0c0.2,0,0.4,0,0.6,0l0,0c0.2,0,0.4,0.1,0.6,0.2
		l-4.5-2.6l0,0c-0.1,0-0.1-0.1-0.2-0.1s-0.1-0.1-0.2-0.1h-0.1l0,0l0,0c-0.1,0-0.2,0-0.2,0c-0.1,0-0.2,0-0.3,0h-0.1c0,0,0,0-0.1,0
		s-0.1,0-0.2,0s-0.2,0-0.4,0.1c0,0-0.1,0-0.2,0.1h-0.1c-0.1,0-0.1,0-0.2,0.1c-0.2,0.1-0.4,0.2-0.6,0.3c-0.3,0.1-0.5,0.3-0.8,0.5
		c-0.1,0.1-0.2,0.1-0.2,0.2c-0.1,0.1-0.2,0.2-0.4,0.3c-0.1,0.1-0.1,0.1-0.2,0.2L321,128c-0.1,0.1-0.1,0.1-0.2,0.2s-0.2,0.3-0.3,0.4
		l-0.1,0.1c0,0,0,0.1-0.1,0.1l-0.1,0.1c-0.1,0.1-0.2,0.2-0.2,0.3c-0.1,0.1-0.1,0.2-0.2,0.3l0,0l0,0c-0.1,0.1-0.1,0.2-0.2,0.3
		s-0.1,0.2-0.2,0.3s-0.1,0.2-0.1,0.3l0,0l0,0c-0.1,0.1-0.1,0.2-0.1,0.4c0,0.1-0.1,0.3-0.1,0.4c0,0.1,0,0.1-0.1,0.2v0.1v0.1
		c0,0.2-0.1,0.3-0.1,0.5c0,0.1,0,0.2,0,0.3v0.1v0.1c0,0.3-0.1,0.5-0.1,0.8c0,1.3,0.4,2.1,1.2,2.6l4.5,2.6c-0.7-0.4-1.2-1.3-1.2-2.6
		c0-0.3,0-0.6,0.1-0.9C323.4,135,323.4,135,323.4,134.9"/>
</g>
<g>
	<defs>
		<rect id="SVGID_35_" x="-131.4" y="0" width="500" height="500"/>
	</defs>
	<clipPath id="SVGID_36_">
		<use xlink:href="#SVGID_35_"  style="overflow:visible;"/>
	</clipPath>
	<path class="st16" d="M327.3,129c2.2-1.3,4-0.3,4,2.3c0,2.5-1.8,5.6-4,6.9c-2.2,1.3-4,0.3-4-2.3C323.3,133.4,325.1,130.3,327.3,129
		"/>
</g>
<g>
	<defs>
		<rect id="SVGID_37_" x="-131.4" y="0" width="500" height="500"/>
	</defs>
	<clipPath id="SVGID_38_">
		<use xlink:href="#SVGID_37_"  style="overflow:visible;"/>
	</clipPath>
	<g class="st17">
		<g>
			<path class="st18" d="M190.8,124.6l-57.3-33.1c-3.4-1.9-6.1-0.4-6.1,3.5v48.8c0,3.9,2.7,8.6,6.1,10.6l22.4,12.9l6.2,16l6.2-8.8
				l22.4,12.9c3.4,1.9,6.1,0.4,6.1-3.5v-48.8C196.9,131.2,194.2,126.5,190.8,124.6"/>
			<polygon class="st19" points="152.2,52.9 152.2,71.4 159.5,75.6 159.5,79.8 147.7,73 147.8,50.3 			"/>
			<polygon class="st19" points="173.6,65.2 173.6,69.4 166.6,65.3 166.6,70.4 173.1,74.1 173.1,78.3 166.6,74.5 166.6,79.7 174,84 
				174,88.2 162.1,81.3 162.2,58.6 			"/>
			<path class="st19" d="M184,70.8c1,0.6,1.9,1.2,2.7,1.8c0.8,0.6,1.5,1.2,2.2,1.9v4.7c-0.3-0.5-0.7-0.9-1.1-1.3s-0.8-0.8-1.2-1.2
				c-0.4-0.4-0.8-0.7-1.2-1c-0.4-0.3-0.8-0.6-1.2-0.8c-0.5-0.3-1-0.5-1.4-0.6s-0.8-0.2-1-0.1c-0.3,0-0.5,0.1-0.7,0.3
				c-0.2,0.2-0.2,0.5-0.2,0.8c0,0.4,0.1,0.8,0.3,1.2c0.2,0.4,0.4,0.8,0.7,1.3c0.3,0.5,0.7,0.9,1.2,1.5c0.5,0.5,1,1.1,1.6,1.7
				c0.8,0.8,1.5,1.7,2.1,2.4c0.6,0.8,1.2,1.6,1.6,2.4s0.8,1.6,1,2.4s0.4,1.7,0.4,2.6c0,1.3-0.2,2.2-0.6,2.8c-0.4,0.6-1,1-1.7,1.1
				s-1.6,0-2.5-0.3c-1-0.3-2-0.8-3-1.4c-1.1-0.6-2.1-1.3-3.1-2.1c-1-0.8-1.8-1.6-2.5-2.4v-5.1c0.8,1.2,1.7,2.3,2.6,3.2
				c0.9,0.9,1.9,1.7,2.8,2.2c0.6,0.3,1.1,0.6,1.5,0.7s0.8,0.2,1,0.1c0.3,0,0.5-0.2,0.6-0.4c0.1-0.2,0.2-0.5,0.2-0.8
				c0-0.4-0.1-0.9-0.3-1.4c-0.2-0.5-0.5-1-0.9-1.5s-0.8-1.1-1.4-1.6c-0.5-0.6-1.1-1.2-1.7-1.8c-1.5-1.6-2.7-3.2-3.4-4.7
				c-0.8-1.5-1.1-3-1.1-4.5c0-1.2,0.2-2.1,0.6-2.7s1-1,1.7-1.1s1.5-0.1,2.5,0.2S182.9,70.2,184,70.8"/>
			<path class="st19" d="M199.8,79.9c1,0.6,1.9,1.2,2.7,1.8c0.8,0.6,1.5,1.2,2.2,1.9v4.7c-0.3-0.5-0.7-0.9-1.1-1.3s-0.8-0.8-1.2-1.2
				c-0.4-0.4-0.8-0.7-1.2-1c-0.4-0.3-0.8-0.6-1.2-0.8c-0.5-0.3-1-0.5-1.4-0.6s-0.8-0.2-1-0.1c-0.3,0-0.5,0.1-0.7,0.3
				c-0.2,0.2-0.2,0.5-0.2,0.8c0,0.4,0.1,0.8,0.3,1.2c0.2,0.4,0.4,0.8,0.7,1.3c0.3,0.5,0.7,0.9,1.2,1.5c0.5,0.5,1,1.1,1.6,1.7
				c0.8,0.8,1.5,1.7,2.1,2.4c0.6,0.8,1.2,1.6,1.6,2.4c0.5,0.8,0.8,1.6,1,2.4s0.4,1.7,0.4,2.6c0,1.3-0.2,2.2-0.6,2.8
				c-0.4,0.6-1,1-1.7,1.1s-1.5,0-2.5-0.3s-2-0.8-3-1.4c-1.1-0.6-2.1-1.3-3.1-2.1c-1-0.8-1.8-1.6-2.5-2.4v-5.1
				c0.8,1.2,1.7,2.3,2.6,3.2c0.9,0.9,1.9,1.7,2.8,2.2c0.6,0.3,1,0.6,1.5,0.7c0.4,0.1,0.8,0.2,1,0.1c0.3,0,0.5-0.2,0.6-0.4
				c0.1-0.2,0.2-0.5,0.2-0.8c0-0.4-0.1-0.9-0.3-1.4c-0.2-0.5-0.5-1-0.9-1.5s-0.8-1.1-1.4-1.6c-0.5-0.6-1.1-1.2-1.7-1.8
				c-1.5-1.6-2.7-3.2-3.4-4.7c-0.8-1.5-1.1-3-1.1-4.5c0-1.2,0.2-2.1,0.6-2.7s1-1,1.7-1.1s1.5-0.1,2.5,0.2
				C197.8,78.9,198.8,79.3,199.8,79.9"/>
			<path class="st19" d="M224.4,97.3c1.7,3.1,2.6,6.4,2.6,9.9c0,3.6-0.9,5.9-2.7,7.1c-1.8,1.1-4.2,0.9-7.1-0.8
				c-2.8-1.6-5.1-4-6.9-7.2c-1.8-3.1-2.7-6.4-2.7-9.8c0-3.6,0.9-6,2.7-7.1c1.8-1.2,4.2-0.9,7.2,0.8
				C220.4,91.8,222.6,94.2,224.4,97.3 M220.9,109.3c0.9-0.8,1.4-2.3,1.4-4.5c0-2.4-0.4-4.4-1.3-6.3c-0.9-1.8-2.1-3.2-3.6-4
				c-1.6-0.9-2.8-0.9-3.7-0.1c-0.9,0.8-1.4,2.3-1.4,4.5c0,2.3,0.4,4.3,1.4,6.1c0.9,1.8,2.1,3.2,3.6,4
				C218.8,110,220,110.1,220.9,109.3"/>
			<path class="st19" d="M248.1,108.2l-0.1,22.7l-4.5-2.6l-8.1-19c-0.5-1.1-0.8-1.9-1-2.5c0,0.8,0.1,2.1,0,3.7V123l-4.2-2.4
				l0.1-22.7l4.8,2.8l7.8,18.4c0.4,0.8,0.7,1.6,1,2.4c0-0.5,0-1.6,0-3.1v-12.6L248.1,108.2z"/>
			<polygon class="st19" points="268.9,119.8 268.8,139 272.9,141.3 272.9,145.3 260.4,138 260.4,134.1 264.5,136.5 264.5,122.3 
				260.3,120.9 260.3,116.9 			"/>
			<polygon class="st20" points="275.2,224.8 275.2,230.5 217,196.9 217,191.2 			"/>
			<polygon class="st20" points="285.1,219.6 285.1,225.4 217,186 217,180.3 			"/>
			<polygon class="st20" points="295.8,204.1 295.8,209.8 217.1,164.3 217.1,158.6 			"/>
			<polygon class="st20" points="295.9,183.7 295.9,195.1 217.1,149.6 217.1,138.2 			"/>
			<polygon class="st20" points="295.8,214.9 295.8,220.6 217,175.2 217.1,169.5 			"/>
		</g>
	</g>
</g>
<g>
	<defs>
		<rect id="SVGID_39_" x="-131.4" y="0" width="500" height="500"/>
	</defs>
	<clipPath id="SVGID_40_">
		<use xlink:href="#SVGID_39_"  style="overflow:visible;"/>
	</clipPath>
	<path class="st21" d="M57.9,144.8c3.8,4.2,7.6,8.4,11.4,12.5c4,4.4,8.2,9,13.8,11.2c9.3,3.8,20,0.3,29-4.1
		c3.7-1.8,7.3-3.7,10.8-5.8c4-2.4,3.7-2.6,7.5-5.2c2.4-1.6,4.8-3.2,7.3-4.6c2.4-1.3,5.4-2.3,7.2-4.3c1.1-1.3,1.8-2.8,2.5-4.3
		c1.7-3.7,4.2-8.3,3.2-12.5c-0.1-0.5-0.3-1-0.3-1.6c0-0.9,0.4-1.7,0.5-2.6c0-0.9-0.7-2-1.6-1.6c-0.3,0.1-0.6,0.5-0.8,0.8
		c-1,1.2-2.3,2-3.6,2.8c-5.3,3.3-10.1,7.4-14.5,11.8c-6.6,6.6-9.6,9.2-18.3,12.7c-5.7,2.3-4.6,1.5-10.7,2c-6.1,0.5-12.6-1-17.1-5.1
		c-2.3-2.1-4-4.8-5.6-7.5l-7.4-12L57.9,144.8z"/>
</g>
<g>
	<defs>
		<rect id="SVGID_41_" x="-131.4" y="0" width="500" height="500"/>
	</defs>
	<clipPath id="SVGID_42_">
		<use xlink:href="#SVGID_41_"  style="overflow:visible;"/>
	</clipPath>
	<path class="st22" d="M15,353.4c3.8,3.1,9.4,0.3,9.7,0.5c3.9,3.9,9.7,8.3,14,11.6c2.4,1.9,6,4.3,5.4,7.9
		c-1.2,6.4-11.4,4.4-15.3,2.5c-3.8-1.9-7-5.2-10.7-7.5c-2.6-1.6-5.2-2.5-5.6-5.7C12.3,360.8,14.3,353.3,15,353.4"/>
</g>
<g>
	<defs>
		<rect id="SVGID_43_" x="-131.4" y="0" width="500" height="500"/>
	</defs>
	<clipPath id="SVGID_44_">
		<use xlink:href="#SVGID_43_"  style="overflow:visible;"/>
	</clipPath>
	<path class="st23" d="M12.6,361.5c0.5,3.1,3,4,5.6,5.6c3.7,2.3,7,5.6,10.8,7.6c3.6,1.8,12.5,3.6,15-1c-1.4,6.2-11.4,4.2-15.2,2.3
		c-3.8-1.9-7-5.2-10.7-7.5c-2.6-1.6-5.2-2.5-5.6-5.7C12.5,362.5,12.5,362,12.6,361.5"/>
</g>
<g>
	<defs>
		<rect id="SVGID_45_" x="-131.4" y="0" width="500" height="500"/>
	</defs>
	<clipPath id="SVGID_46_">
		<use xlink:href="#SVGID_45_"  style="overflow:visible;"/>
	</clipPath>
	<path class="st24" d="M47.9,341.2c3.8,3.1,10.4-0.3,10.7,0c3.9,3.9,8.2,7.9,12.5,11.3c2.4,1.9,6,4.3,5.4,7.9
		c-1.2,6.4-11.4,4.4-15.3,2.5c-3.8-1.9-7-5.2-10.7-7.5c-2.6-1.6-5.2-2.5-5.6-5.7C44.7,347.7,47.2,341.1,47.9,341.2"/>
</g>
<g>
	<defs>
		<rect id="SVGID_47_" x="-131.4" y="0" width="500" height="500"/>
	</defs>
	<clipPath id="SVGID_48_">
		<use xlink:href="#SVGID_47_"  style="overflow:visible;"/>
	</clipPath>
	<path class="st25" d="M45.1,348.8c0.5,3.1,3,4,5.6,5.6c3.7,2.3,7,5.6,10.8,7.6c3.6,1.8,12.5,3.6,15-1c-1.4,6.2-11.4,4.2-15.2,2.3
		c-3.8-1.9-7-5.2-10.7-7.5c-2.6-1.6-5.2-2.5-5.6-5.7C45,349.8,45,349.3,45.1,348.8"/>
</g>
<g>
	<defs>
		<rect id="SVGID_49_" x="-131.4" y="0" width="500" height="500"/>
	</defs>
	<clipPath id="SVGID_50_">
		<use xlink:href="#SVGID_49_"  style="overflow:visible;"/>
	</clipPath>
	<path class="st26" d="M14.8,213.5c0.2,5.7,2,30.6,2.8,43.8c0.8,13.2,1,29.3,1,29.3s-2.3,9.6-3.7,20.9c-1.5,11.3,0,46.9,0,46.9
		s4.3,3.2,9.7,0c0,0,6.1-28.5,8.9-41.3c2.8-12.8,3.3-20.2,4.8-28.2c1.8-9.6,5.6-54.5,5.6-54.5l1.5,0.1l4.1,50.7
		c0,0-1.6,4.2-2.6,11.5c-1.1,8.3,1.2,49.8,1.2,49.8s4.7,3.1,10.5-0.4c0,0,10.1-55,10.1-63.4c0-5.5-0.9-78.6-0.9-78.6L14.8,213.5z"/>
</g>
<g>
	<defs>
		<rect id="SVGID_51_" x="-131.4" y="0" width="500" height="500"/>
	</defs>
	<clipPath id="SVGID_52_">
		<use xlink:href="#SVGID_51_"  style="overflow:visible;"/>
	</clipPath>
	<path class="st27" d="M28.5,102.8c0,0,0.6,12.5,0.4,13.6c-0.3,1.1-5.7,4.8-7.3,6.1c-1.6,1.3,8.6,11.4,13.6,13.7s20.7-3.7,21-11.5
		c0.3-7.7-2.7-14.2-5.1-14.6C48.6,109.8,28.5,102.8,28.5,102.8"/>
</g>
<g>
	<defs>
		<rect id="SVGID_53_" x="-131.4" y="0" width="500" height="500"/>
	</defs>
	<clipPath id="SVGID_54_">
		<use xlink:href="#SVGID_53_"  style="overflow:visible;"/>
	</clipPath>
	<path class="st28" d="M27.1,118.5c0,0,9.1,13.5,21.7,14.8c4-3.9,4.4-17.9-1.2-22.4c0,0,5.1-4.1,8.5-3.3c0,0,5.5,2.8,7.8,10
		c2.3,7.1,4.7,15.7,4.5,28.9c-0.2,13.3,0,53.8,0,53.8s-1.8,8.6-13.2,14.9c-11.4,6.4-19.9,7-27.7,5.2c-6.4-1.5-11.7-3.8-13.9-8.4
		c0.6-9.3,4.7-33.5,3.2-45.2s-4-20.4-4.7-29.9c-0.6-9.4,1.2-9.3,6-12.6C24.5,119.8,27.1,118.5,27.1,118.5"/>
</g>
<g>
	<defs>
		<rect id="SVGID_55_" x="-131.4" y="0" width="500" height="500"/>
	</defs>
	<clipPath id="SVGID_56_">
		<use xlink:href="#SVGID_55_"  style="overflow:visible;"/>
	</clipPath>
	<path class="st29" d="M34.7,223.6c-2-1.2-3.5-2.9-6.5-4.3c-2.6-1.3-4.5-1.8-6.3-3.8c-2-2.2-4.1-10.3-6.1-18
		c-2.3-9.2-2-21.4-1.1-26.6c1.8-10.6,6.6-25.3,8-31.4c1.4-6.1-0.4-8.7-3.1-11.1c-3.2-2.9-7.9-2-10.9,6.4c-3.1,8.4-6.9,23.9-8,36.1
		c-0.5,5.9-0.6,15.4,2.4,27.2c2,8.2,5,14.3,8.9,21.9c1,2.1,1.3,3.9,2.8,8c1.5,4.2,4.3,8.6,7.2,11s4.3,2.8,5,2.4
		c0.9-0.5,0.8-1.4-0.4-2.7c-1.2-1.2-3.4-3.1-5-6.4c0,0,2.5,2.8,4.1,4.4c1.6,1.6,3.4,2.8,4.8,3.5c1.7,0.9,4.3-0.4,3.1-1.7
		s-2.4-1.9-4.8-4.3c-2.2-2.1-3.3-4.1-3.3-4.1s2.7,2.4,5.3,4s4.1,1.7,5,1.7s2.2-1.2,0.5-2.6c-1.5-1.2-3.9-2.2-6.4-5
		c-1.8-2-2.8-3.7-2.2-3.7c0.5,0,1.5,1.3,3.7,2.1c2.1,0.8,4.7,0.4,5-0.8C36.8,224.5,36.7,224.8,34.7,223.6"/>
</g>
<g>
	<defs>
		<rect id="SVGID_57_" x="-131.4" y="0" width="500" height="500"/>
	</defs>
	<clipPath id="SVGID_58_">
		<use xlink:href="#SVGID_57_"  style="overflow:visible;"/>
	</clipPath>
	<path class="st30" d="M56.8,84.2L56.8,84.2c-1.5-9.7-8.5-17-18.5-16.5C27.7,68.3,19.5,77.4,20.1,88c0.3,6.2,3.6,11.5,8.4,14.8
		c0,0,0.9,3.5,1.5,4.2c3.5,4.1,14.2,6.7,17.3,6.3c3.9-0.6,6.1-2.2,8-6.5C58.6,99.1,57.6,89,56.8,84.2"/>
</g>
<g>
	<defs>
		<rect id="SVGID_59_" x="-131.4" y="0" width="500" height="500"/>
	</defs>
	<clipPath id="SVGID_60_">
		<use xlink:href="#SVGID_59_"  style="overflow:visible;"/>
	</clipPath>
	<path class="st31" d="M28.5,102.8L28.5,102.8l0.9-8.5c0,0-6.9-17.9,9.4-14.5c10.8,2.3,13.5,3.3,16.8-4c3.3-7.2-8.3-13.7-22-11.9
		c-13.7,1.8-17.4,13.9-17,19.3C16.9,88.5,18.4,99.3,28.5,102.8"/>
</g>
<g>
	<defs>
		<rect id="SVGID_61_" x="-131.4" y="0" width="500" height="500"/>
	</defs>
	<clipPath id="SVGID_62_">
		<use xlink:href="#SVGID_61_"  style="overflow:visible;"/>
	</clipPath>
	<path class="st32" d="M0.5,151.4c0,0,8.9,8.9,19.5,6.3c1.5-1,5.1-21.8,5.1-21.8s0-11.5-8.8-11.2S0.5,151.4,0.5,151.4"/>
</g>
<g>
	<defs>
		<rect id="SVGID_63_" x="-131.4" y="0" width="500" height="500"/>
	</defs>
	<clipPath id="SVGID_64_">
		<use xlink:href="#SVGID_63_"  style="overflow:visible;"/>
	</clipPath>
	<path class="st33" d="M67.9,134.2c0,0,4.7-0.2,6.6-2.9c-0.4-4.6-6.3-22.3-18.2-23.6c0,0,5.2,3.4,7.5,9
		C65.8,122,67.9,134.2,67.9,134.2"/>
</g>
<g>
	<defs>
		<rect id="SVGID_65_" x="-131.4" y="0" width="500" height="500"/>
	</defs>
	<clipPath id="SVGID_66_">
		<use xlink:href="#SVGID_65_"  style="overflow:visible;"/>
	</clipPath>
	<polygon class="st34" points="135.1,151.1 137.6,145.8 140.6,147 138.9,152.5 	"/>
</g>
<g>
	<defs>
		<rect id="SVGID_67_" x="-131.4" y="0" width="500" height="500"/>
	</defs>
	<clipPath id="SVGID_68_">
		<use xlink:href="#SVGID_67_"  style="overflow:visible;"/>
	</clipPath>
	<polygon class="st35" points="144,128.3 162.5,81.5 164,82.1 147.7,129.7 	"/>
</g>
<g>
	<defs>
		<rect id="SVGID_69_" x="-131.4" y="0" width="500" height="500"/>
	</defs>
	<clipPath id="SVGID_70_">
		<use xlink:href="#SVGID_69_"  style="overflow:visible;"/>
	</clipPath>
</g>
<g>
	<defs>
		<rect id="SVGID_71_" x="-131.4" y="0" width="500" height="500"/>
	</defs>
	<clipPath id="SVGID_72_">
		<use xlink:href="#SVGID_71_"  style="overflow:visible;"/>
	</clipPath>
</g>
<g>
	<defs>
		<rect id="SVGID_73_" x="-131.4" y="0" width="500" height="500"/>
	</defs>
	<clipPath id="SVGID_74_">
		<use xlink:href="#SVGID_73_"  style="overflow:visible;"/>
	</clipPath>
</g>
<g>
	<defs>
		<rect id="SVGID_75_" x="-131.4" y="0" width="500" height="500"/>
	</defs>
	<clipPath id="SVGID_76_">
		<use xlink:href="#SVGID_75_"  style="overflow:visible;"/>
	</clipPath>
</g>
<g>
	<defs>
		<rect id="SVGID_77_" x="-131.4" y="0" width="500" height="500"/>
	</defs>
	<clipPath id="SVGID_78_">
		<use xlink:href="#SVGID_77_"  style="overflow:visible;"/>
	</clipPath>
</g>
<g>
	<defs>
		<rect id="SVGID_79_" x="-131.4" y="0" width="500" height="500"/>
	</defs>
	<clipPath id="SVGID_80_">
		<use xlink:href="#SVGID_79_"  style="overflow:visible;"/>
	</clipPath>
</g>
<g>
	<defs>
		<rect id="SVGID_81_" x="-131.4" y="0" width="500" height="500"/>
	</defs>
	<clipPath id="SVGID_82_">
		<use xlink:href="#SVGID_81_"  style="overflow:visible;"/>
	</clipPath>
</g>
<g>
	<defs>
		<rect id="SVGID_83_" x="-131.4" y="0" width="500" height="500"/>
	</defs>
	<clipPath id="SVGID_84_">
		<use xlink:href="#SVGID_83_"  style="overflow:visible;"/>
	</clipPath>
</g>
</svg>
