<svg id="Calque_1" data-name="Calque 1" xmlns="http://www.w3.org/2000/svg" xmlns:xlink="http://www.w3.org/1999/xlink" viewBox="0 0 283.46 283.46"><defs><style>.cls-1{fill:#f2ebeb;}.cls-2{fill:#1d1d1b;opacity:0.04;}.cls-3{fill:#d0c6c6;}.cls-4{isolation:isolate;}.cls-5{clip-path:url(#clip-path);}.cls-6{fill:#e9e2e1;}.cls-7{fill:#f7f2f2;}.cls-8{fill:#dad0d0;}.cls-9{fill:#5a36ff;}.cls-10{clip-path:url(#clip-path-2);}.cls-11{fill:#f9408f;}.cls-12{clip-path:url(#clip-path-3);}.cls-13{fill:#ffd438;}</style><clipPath id="clip-path"><path class="cls-1" d="M100.52,60.15l.22,79.72c0,7.64,5.05,15.27,15.08,21.1,20.22,11.75,53.08,11.75,73.41,0,10.23-5.91,15.34-13.66,15.32-21.4l-.23-79.71c0,7.74-5.09,15.49-15.31,21.39C168.68,93,135.82,93,115.59,81.26,105.56,75.43,100.54,67.79,100.52,60.15Z"/></clipPath><clipPath id="clip-path-2"><path class="cls-1" d="M133,154.79l-.23,79.72c0,7.64-5,15.27-15.08,21.1-20.22,11.75-53.08,11.75-73.41,0C34.09,249.72,29,242,29,234.23l.23-79.72c0,7.75,5.08,15.5,15.31,21.4,20.33,11.74,53.19,11.74,73.41,0C128,170.07,133,162.43,133,154.79Z"/></clipPath><clipPath id="clip-path-3"><path class="cls-1" d="M151.81,162l.22,79.71c0,7.65,5.05,15.28,15.08,21.11,20.22,11.75,53.08,11.75,73.41,0,10.23-5.9,15.34-13.65,15.32-21.39l-.23-79.72c0,7.74-5.09,15.49-15.31,21.4-20.33,11.74-53.19,11.74-73.41,0C156.85,177.28,151.83,169.65,151.81,162Z"/></clipPath></defs><title>graphisme</title><path class="cls-2" d="M115.31,118.48c-24.91,14.38-25,37.69-.3,52.07s65,14.4,89.94,0,25-37.69.26-52.09S140.21,104.1,115.31,118.48Z"/><path class="cls-3" d="M193,60.31A2,2,0,0,0,194.84,59a78.37,78.37,0,0,0,4.74-25.8c0-14-4.82-24.51-13.59-29.57s-20.27-4-32.41,3a2,2,0,1,0,2,3.39c10.87-6.28,21-7.35,28.5-3s11.63,13.63,11.63,26.19a74.63,74.63,0,0,1-4.52,24.51,2,2,0,0,0,1.19,2.49A2.16,2.16,0,0,0,193,60.31Z"/><g class="cls-4"><g class="cls-4"><path class="cls-1" d="M100.52,60.15l.22,79.72c0,7.64,5.05,15.27,15.08,21.1,20.22,11.75,53.08,11.75,73.41,0,10.23-5.91,15.34-13.66,15.32-21.4l-.23-79.71c0,7.74-5.09,15.49-15.31,21.39C168.68,93,135.82,93,115.59,81.26,105.56,75.43,100.54,67.79,100.52,60.15Z"/><g class="cls-5"><g class="cls-4"><polygon class="cls-1" points="100.52 60.15 100.74 139.87 100.74 139.87 100.52 60.16 100.52 60.16 100.52 60.15"/><path class="cls-6" d="M100.52,60.16l.22,79.71a19.57,19.57,0,0,0,3.58,10.93l-.22-79.71a19.46,19.46,0,0,1-3.58-10.93Z"/><path class="cls-6" d="M104.1,71.09l.22,79.71A34.68,34.68,0,0,0,115.82,161c9,5.23,20.48,8.13,32.26,8.71L147.85,90c-11.77-.57-23.26-3.48-32.26-8.7A34.76,34.76,0,0,1,104.1,71.09Z"/><path class="cls-1" d="M147.85,90l.23,79.72a88.76,88.76,0,0,0,19.1-1.11L167,88.85A88.12,88.12,0,0,1,147.85,90Z"/><path class="cls-6" d="M167,88.85l.23,79.72a66.75,66.75,0,0,0,22-7.58c10.23-5.91,15.34-13.66,15.32-21.4l-.23-79.71c0,7.74-5.09,15.49-15.31,21.39A66.81,66.81,0,0,1,167,88.85Z"/></g></g></g><path class="cls-7" d="M115.83,38.75c-20.32,11.74-20.43,30.77-.24,42.51S168.68,93,189,81.27s20.43-30.77.21-42.52S136.16,27,115.83,38.75Z"/><path class="cls-8" d="M108.36,60.09a10.6,10.6,0,0,0,1.33,5c1.72,3.32,5.12,6.61,9.85,9.35,8.45,4.92,20.42,7.74,32.74,7.74s24.3-2.82,32.82-7.74c4.81-2.78,8.29-6.07,10.06-9.47a11.19,11.19,0,0,0,1.33-5.08c0-5-4.07-10.29-11.19-14.44-8.49-4.89-20.42-7.74-32.74-7.74s-24.29,2.85-32.82,7.78C112.5,49.73,108.36,55,108.36,60.09Z"/><path class="cls-9" d="M109.69,65.14c1.72,3.32,5.12,6.61,9.85,9.35,8.45,4.92,20.42,7.74,32.74,7.74s24.3-2.82,32.82-7.74c4.81-2.78,8.29-6.07,10.06-9.47-1.69-3.4-5.09-6.65-9.86-9.43-8.49-4.93-20.42-7.74-32.74-7.74s-24.29,2.81-32.82,7.78C114.89,58.41,111.41,61.73,109.69,65.14Z"/></g><path class="cls-3" d="M111.49,84.89a2,2,0,0,0,2-2c0-26.79,18.89-59.5,42.1-72.9a2,2,0,0,0-2-3.39c-24.29,14-44.05,48.25-44.05,76.29A2,2,0,0,0,111.49,84.89Z"/><path class="cls-2" d="M256.56,220.37c-24.74-14.37-65-14.37-89.9,0a45.81,45.81,0,0,0-12.33,10.07c-2.63-6.34-8.13-12.36-16.66-17.32-24.75-14.38-65-14.38-89.91,0s-25,37.7-.29,52.08,65,14.39,89.94,0a45.72,45.72,0,0,0,12.32-10.07c2.63,6.34,8.12,12.35,16.63,17.3,24.78,14.4,65,14.4,89.94,0S281.33,234.77,256.56,220.37Z"/><path class="cls-3" d="M40.55,155a2,2,0,0,1-1.84-1.31A78.39,78.39,0,0,1,34,127.84c0-14,4.83-24.51,13.59-29.57s20.28-4,32.41,3A2,2,0,1,1,78,104.67c-10.88-6.28-21-7.35-28.5-3s-11.64,13.63-11.64,26.19a74.66,74.66,0,0,0,4.53,24.51,2,2,0,0,1-1.2,2.49A2.06,2.06,0,0,1,40.55,155Z"/><g class="cls-4"><g class="cls-4"><path class="cls-1" d="M133,154.79l-.23,79.72c0,7.64-5,15.27-15.08,21.1-20.22,11.75-53.08,11.75-73.41,0C34.09,249.72,29,242,29,234.23l.23-79.72c0,7.75,5.08,15.5,15.31,21.4,20.33,11.74,53.19,11.74,73.41,0C128,170.07,133,162.43,133,154.79Z"/><g class="cls-10"><g class="cls-4"><polygon class="cls-1" points="133.03 154.79 132.8 234.51 132.8 234.51 133.03 154.8 133.03 154.79 133.03 154.79"/><path class="cls-6" d="M133,154.8l-.23,79.71a19.41,19.41,0,0,1-3.58,10.93l.23-79.71A19.54,19.54,0,0,0,133,154.8Z"/><path class="cls-6" d="M129.45,165.73l-.23,79.71a34.48,34.48,0,0,1-11.5,10.17c-9,5.23-20.48,8.13-32.26,8.71l.23-79.72C97.47,184,109,181.12,118,175.9a34.8,34.8,0,0,0,11.5-10.17Z"/><path class="cls-1" d="M85.69,184.6l-.23,79.72a89.34,89.34,0,0,1-19.09-1.11l.22-79.72a88.16,88.16,0,0,0,19.1,1.11Z"/><path class="cls-6" d="M66.59,183.49l-.22,79.72a67,67,0,0,1-22.06-7.58C34.09,249.72,29,242,29,234.23l.23-79.72c0,7.75,5.08,15.5,15.31,21.4a66.83,66.83,0,0,0,22.05,7.58Z"/></g></g></g><path class="cls-7" d="M117.71,133.39c20.33,11.74,20.44,30.77.24,42.51s-53.08,11.75-73.41,0-20.44-30.77-.21-42.52S97.38,121.65,117.71,133.39Z"/><path class="cls-8" d="M125.19,154.73a10.6,10.6,0,0,1-1.33,5.05c-1.72,3.32-5.13,6.61-9.86,9.35-8.45,4.92-20.42,7.74-32.74,7.74S57,174.05,48.44,169.13c-4.81-2.78-8.29-6.07-10-9.47a11.2,11.2,0,0,1-1.33-5.09c0-5,4.07-10.28,11.19-14.43,8.49-4.89,20.42-7.74,32.74-7.74s24.29,2.85,32.82,7.78C121,144.37,125.19,149.65,125.19,154.73Z"/><path class="cls-11" d="M123.86,159.78c-1.72,3.32-5.13,6.61-9.86,9.35-8.45,4.92-20.42,7.74-32.74,7.74S57,174.05,48.44,169.13c-4.81-2.78-8.29-6.07-10-9.47,1.68-3.4,5.08-6.65,9.86-9.43,8.49-4.93,20.42-7.74,32.74-7.74s24.29,2.81,32.82,7.78C118.66,153.05,122.14,156.37,123.86,159.78Z"/></g><path class="cls-3" d="M122.06,179.53a2,2,0,0,1-2-2c0-26.79-18.88-59.5-42.09-72.9A2,2,0,0,1,80,101.28c24.29,14,44.05,48.25,44.05,76.29A2,2,0,0,1,122.06,179.53Z"/><path class="cls-3" d="M244.28,162.16a2,2,0,0,0,1.85-1.31,78.1,78.1,0,0,0,4.74-25.79c0-14-4.82-24.52-13.59-29.58s-20.27-4-32.41,3a2,2,0,1,0,2,3.38c10.87-6.27,21-7.34,28.5-3S247,122.5,247,135.06a74.37,74.37,0,0,1-4.52,24.5,2,2,0,0,0,1.19,2.49A1.89,1.89,0,0,0,244.28,162.16Z"/><g class="cls-4"><g class="cls-4"><path class="cls-1" d="M151.81,162l.22,79.71c0,7.65,5.05,15.28,15.08,21.11,20.22,11.75,53.08,11.75,73.41,0,10.23-5.9,15.34-13.65,15.32-21.39l-.23-79.72c0,7.74-5.09,15.49-15.31,21.4-20.33,11.74-53.19,11.74-73.41,0C156.85,177.28,151.83,169.65,151.81,162Z"/><g class="cls-12"><g class="cls-4"><polygon class="cls-1" points="151.81 162.01 152.03 241.72 152.03 241.73 151.81 162.01 151.81 162.01 151.81 162.01"/><path class="cls-6" d="M151.81,162l.22,79.72a19.53,19.53,0,0,0,3.59,10.93L155.39,173A19.47,19.47,0,0,1,151.81,162Z"/><path class="cls-6" d="M155.39,173l.23,79.71a34.76,34.76,0,0,0,11.49,10.17c9,5.22,20.48,8.13,32.26,8.7l-.23-79.71c-11.77-.58-23.26-3.48-32.25-8.71A34.57,34.57,0,0,1,155.39,173Z"/><path class="cls-1" d="M199.14,191.82l.23,79.71a88.12,88.12,0,0,0,19.1-1.11l-.23-79.71a89.4,89.4,0,0,1-19.1,1.11Z"/><path class="cls-6" d="M218.24,190.71l.23,79.71a66.67,66.67,0,0,0,22.05-7.58c10.23-5.9,15.34-13.65,15.32-21.39l-.23-79.72c0,7.74-5.09,15.49-15.31,21.4a66.81,66.81,0,0,1-22.06,7.58Z"/></g></g></g><path class="cls-7" d="M167.12,140.61c-20.32,11.73-20.43,30.77-.23,42.5s53.08,11.76,73.41,0,20.43-30.77.21-42.52S187.45,128.87,167.12,140.61Z"/><path class="cls-8" d="M159.65,162a10.56,10.56,0,0,0,1.33,5c1.72,3.33,5.12,6.61,9.86,9.35,8.44,4.93,20.41,7.75,32.73,7.75s24.29-2.82,32.82-7.75c4.81-2.78,8.29-6.06,10.06-9.46a11.27,11.27,0,0,0,1.33-5.09c0-5-4.07-10.29-11.19-14.43-8.49-4.89-20.42-7.75-32.74-7.75s-24.29,2.86-32.82,7.79C163.79,151.58,159.65,156.86,159.65,162Z"/><path class="cls-13" d="M161,167c1.72,3.33,5.12,6.61,9.86,9.35,8.44,4.93,20.41,7.75,32.73,7.75s24.29-2.82,32.82-7.75c4.81-2.78,8.29-6.06,10.06-9.46-1.69-3.41-5.09-6.65-9.86-9.43-8.49-4.93-20.42-7.75-32.74-7.75s-24.29,2.82-32.82,7.79C166.18,160.27,162.7,163.59,161,167Z"/></g><path class="cls-3" d="M162.78,186.74a2,2,0,0,0,2-2c0-26.8,18.88-59.51,42.09-72.91a2,2,0,0,0-2-3.38c-24.29,14-44,48.25-44,76.29A2,2,0,0,0,162.78,186.74Z"/></svg>