<svg id="Calque_1" data-name="Calque 1" xmlns="http://www.w3.org/2000/svg" viewBox="0 0 283.46 283.46"><defs><style>.cls-1{fill:#fff;}</style></defs><title>indesign_light</title><path class="cls-1" d="M36.13,47H75.88v186.7H36.13Z"/><path class="cls-1" d="M248.38,35.8V233.71H211.82V217.18q-14.23,18.67-41.22,18.67a64.24,64.24,0,0,1-33.75-9.07,62.63,62.63,0,0,1-23.68-25.87q-8.58-16.8-8.58-38.95T113.17,123a62.69,62.69,0,0,1,23.68-25.87,64.33,64.33,0,0,1,33.75-9.07q25.26,0,39.5,17.34V35.8ZM201.27,190.91q9.57-10.82,9.57-28.95T201.27,133a32.45,32.45,0,0,0-48.34,0q-9.57,10.81-9.57,28.94t9.57,28.95a32.45,32.45,0,0,0,48.34,0Z"/></svg>