<svg id="Calque_1" data-name="Calque 1" xmlns="http://www.w3.org/2000/svg" viewBox="0 0 12.38 7.91"><defs><style>.cls-1{fill:#fff;}</style></defs><title>logo_light</title><path class="cls-1" d="M8.05,2.44l.6-.21a2.86,2.86,0,0,1,3.72,2.95A2.87,2.87,0,0,1,9.52,7.91a3.62,3.62,0,0,1-2.3-.86A11.87,11.87,0,0,1,5.41,5.18,7.51,7.51,0,0,0,4.16,3.91a2.15,2.15,0,0,0-1.25-.5,1.51,1.51,0,0,0-1.49,1.1,1.59,1.59,0,0,0,.69,1.77,1.46,1.46,0,0,0,2.17-1,5.61,5.61,0,0,0,0-.82l.09.07c.52.58,1,1.16,1.54,1.75a1.6,1.6,0,0,1-.16,1.36.69.69,0,0,1-1-.14l-.13-.21-.37.23A2.86,2.86,0,0,1,.08,5.75,3.82,3.82,0,0,1,0,4.49,2.83,2.83,0,0,1,3.76,2.18a4.46,4.46,0,0,1,2,1.36c.49.54,1,1.11,1.45,1.65A4,4,0,0,0,8.68,6.3a2.51,2.51,0,0,0,.84.2A1.45,1.45,0,0,0,11,5,1.53,1.53,0,0,0,9.72,3.48,1.49,1.49,0,0,0,8.08,5.24a1.12,1.12,0,0,1,0,.37c-.11-.1-.22-.19-.32-.3q-.53-.57-1-1.14a.38.38,0,0,1-.09-.25c0-1.08,0-2.17,0-3.25A.68.68,0,0,1,8,.65c0,.52,0,1,0,1.55C8,2.27,8.05,2.34,8.05,2.44Z"/></svg>