<svg id="Calque_1" data-name="Calque 1" xmlns="http://www.w3.org/2000/svg" viewBox="0 0 52.83 52.82"><defs><style>.cls-1{fill:#fff;}</style></defs><title>logo_light</title><path class="cls-1" d="M26.41,0A26.41,26.41,0,1,0,52.83,26.41,26.41,26.41,0,0,0,26.41,0Zm9.2,36.74a10.15,10.15,0,0,1-6.37-2.37,35.59,35.59,0,0,1-5-5.15,20.84,20.84,0,0,0-3.45-3.51,6,6,0,0,0-3.46-1.38,4.12,4.12,0,0,0-4.08,3,4.39,4.39,0,0,0,1.9,4.89c2.69,1.72,5.58-.54,6-2.82a14.2,14.2,0,0,0,0-2.26,1,1,0,0,1,.24.18c1.42,1.6,2.85,3.19,4.24,4.82.53.62.17,3.22-.45,3.74a1.86,1.86,0,0,1-2.82-.38L22,35c-.36.23-.68.45-1,.64A7.86,7.86,0,0,1,9.58,30.77a9.6,9.6,0,0,1-.13-3.46,7.78,7.78,0,0,1,10.28-6.37,12.2,12.2,0,0,1,5.54,3.73c1.36,1.51,2.66,3.07,4,4.57a11.1,11.1,0,0,0,4,3.06,7.13,7.13,0,0,0,2.31.53c2.21.11,3.87-1.59,4.06-4a4.23,4.23,0,0,0-3.52-4.3,4.12,4.12,0,0,0-4.52,4.86,3.08,3.08,0,0,1,.07,1,11.52,11.52,0,0,1-.89-.82c-.95-1-1.89-2.09-2.82-3.16a1.15,1.15,0,0,1-.23-.67c0-3,0-6,0-9a1.87,1.87,0,0,1,1.9-1.84,1.85,1.85,0,0,1,1.84,1.78c0,1.43,0,2.85,0,4.28,0,.2,0,.39,0,.67.61-.22,1.13-.42,1.67-.59a8,8,0,1,1,2.4,15.67Z"/></svg>