<svg id="Calque_1" data-name="Calque 1" xmlns="http://www.w3.org/2000/svg" viewBox="0 0 283.46 283.46"><defs><style>.cls-1{fill:#1d1d1b;}</style></defs><title>myphp</title><path class="cls-1" d="M.33,141.1a.62.62,0,0,1,0,.77Z"/><path class="cls-1" d="M.33,144.94a.6.6,0,0,1,0,.76Z"/><path class="cls-1" d="M283.29,140.21a27.19,27.19,0,0,0-.93-6.41,43.42,43.42,0,0,0-4.14-10.14,58.41,58.41,0,0,0-8.62-11.52c-1.59-1.69-3.28-3.27-5-4.81a88.9,88.9,0,0,0-8.93-6.9,123,123,0,0,0-16.4-9.36q-4.69-2.25-9.52-4.2c-4.35-1.74-8.76-3.32-13.23-4.71-3.07-1-6.15-1.87-9.26-2.68-7.34-1.92-14.74-3.51-22.23-4.7-2.35-.38-4.71-.75-7.07-1-3.17-.4-6.33-.78-9.51-1.08-2.81-.26-5.63-.56-8.45-.66-3.23-.12-6.46-.23-9.69-.21h-2.46a9.83,9.83,0,0,1-1.8-.07h-8.44a9.83,9.83,0,0,1-1.8.07h-2.47c-2.76,0-5.52.13-8.28.17s-5.4.29-8.09.52c-3.3.29-6.59.67-9.88,1.09-5.32.67-10.61,1.53-15.88,2.53-5.42,1-10.78,2.3-16.11,3.74a187.86,187.86,0,0,0-22,7.39,150.79,150.79,0,0,0-14.95,7,117.75,117.75,0,0,0-11.24,6.93,90,90,0,0,0-9.87,8A68,68,0,0,0,10.6,116a47.72,47.72,0,0,0-9,16.67,24.74,24.74,0,0,0-1,4.67c-.09,1-.08,2-.23,3v.76a1,1,0,0,1,0,.77v3.07a1,1,0,0,1,0,.76v.77c.12.15.06.33.07.49a25.72,25.72,0,0,0,.85,6.11,45.39,45.39,0,0,0,4.13,10.08,58.34,58.34,0,0,0,8.49,11.38c1.61,1.72,3.34,3.34,5.11,4.9a89.33,89.33,0,0,0,8.67,6.73,121.49,121.49,0,0,0,16.54,9.5c3,1.42,6,2.77,9,4,4.42,1.8,8.91,3.4,13.46,4.84q6.36,2,12.84,3.63,7.91,2,15.93,3.36c3.35.59,6.71,1.12,10.09,1.56,3.18.42,6.37.8,9.57,1.09,2.79.26,5.59.56,8.39.67,3.27.13,6.54.22,9.82.21h2.33a9.86,9.86,0,0,1,1.8.07h8.69A9.83,9.83,0,0,1,148,215h2.34c2.81,0,5.62-.13,8.42-.17s5.31-.3,7.95-.53c3.31-.28,6.6-.66,9.89-1.08q8-1,15.88-2.54,8.91-1.71,17.65-4.15a187.94,187.94,0,0,0,18.65-6.23,147.71,147.71,0,0,0,16.84-7.82c2.82-1.55,5.59-3.16,8.28-4.93a96.83,96.83,0,0,0,10.88-8.24A71.83,71.83,0,0,0,272,172a51.24,51.24,0,0,0,8.51-13.58,33.08,33.08,0,0,0,2.78-13C283.32,143.65,283.33,141.93,283.29,140.21Zm-180,15.65a31.06,31.06,0,0,1-19.19,9.68,77.12,77.12,0,0,1-9.36.59q-6.93,0-13.86,0c-.51,0-.68.15-.77.63-1.24,6.48-2.5,12.95-3.74,19.42-.09.47-.28.59-.74.59q-7.83,0-15.65,0c-.47,0-.61,0-.5-.59q3.06-15.61,6.07-31.24t6.07-31.17c.91-4.66,1.82-9.31,2.7-14,.1-.53.3-.63.79-.62H72.84c5,0,10-.05,15,0A32.81,32.81,0,0,1,101.76,112c6.5,3.09,10.41,8.24,11.13,15.39C114,138.23,111,147.85,103.33,155.86Zm65,9.71c-.08.46-.25.57-.7.57-2.64,0-5.28,0-7.92,0s-5.24,0-7.86,0c-.56,0-.62-.17-.53-.66q3.32-16.89,6.59-33.81a15.52,15.52,0,0,0,.35-4.56c-.31-2.94-1.46-4.23-4.33-4.92a22.16,22.16,0,0,0-5.26-.53c-4.3,0-8.6,0-12.9,0-.46,0-.62.13-.7.56L127.9,159c-.43,2.21-.87,4.42-1.28,6.64-.07.38-.18.53-.6.53-5.23,0-10.47,0-15.71,0-.51,0-.5-.22-.43-.58q1.35-6.88,2.68-13.77l4.2-21.54,4.68-24c1.08-5.59,2.17-11.18,3.23-16.78.13-.69.37-.9,1.08-.89,5.05,0,10.1,0,15.14,0,.59,0,.7.11.58.7-1.27,6.42-2.5,12.85-3.77,19.28-.1.52,0,.66.54.66,5.19,0,10.39-.06,15.59,0A40.81,40.81,0,0,1,166.29,111a14,14,0,0,1,6.67,4.17,13.23,13.23,0,0,1,2.84,8.22,41.47,41.47,0,0,1-1.2,9.8l-5.34,27.48C168.94,162.27,168.59,163.91,168.3,165.57Zm66.54-9.24a31,31,0,0,1-18.76,9.21,77,77,0,0,1-9.23.59q-7,0-14,0c-.46,0-.64.11-.74.6-1.25,6.52-2.53,13-3.78,19.54-.08.42-.25.49-.63.49q-7.89,0-15.78,0c-.51,0-.54-.19-.46-.6q2.28-11.61,4.54-23.22,2.46-12.67,4.91-25.36t4.93-25.29c.15-.79.33-1.59.44-2.38.07-.56.27-.75.88-.75,5.88,0,11.76,0,17.63,0,5,0,10.06-.05,15.08,0a32.89,32.89,0,0,1,13.49,2.63c6.86,3.15,10.88,8.5,11.53,16C245.85,138.78,242.65,148.4,234.84,156.33Z"/><path class="cls-1" d="M69.53,153.9H63.21c-.41,0-.54,0-.45-.52q3.06-15.67,6.08-31.37c.09-.47.25-.64.77-.63,4.43,0,8.86,0,13.29.07a22,22,0,0,1,6.94,1.21c3.23,1.14,5.21,3.38,5.51,6.76a26.36,26.36,0,0,1-4.51,17.92c-2.2,3.16-5.46,4.75-9.12,5.64a40.07,40.07,0,0,1-9.89.92Z"/><path class="cls-1" d="M201.41,153.9c-2.08,0-4.17,0-6.25,0-.46,0-.53-.13-.45-.54q1.9-9.66,3.77-19.33,1.19-6,2.35-12.08c.06-.35.12-.57.57-.57,4.49,0,9,0,13.47.07a22.17,22.17,0,0,1,6.83,1.17,7.77,7.77,0,0,1,5.68,7.26,27.35,27.35,0,0,1-4,16.64c-2.35,3.78-6,5.64-10.22,6.58a46.56,46.56,0,0,1-10.73.79Z"/></svg>