<svg id="Calque_1" data-name="Calque 1" xmlns="http://www.w3.org/2000/svg" viewBox="0 0 283.46 283.46"><defs><style>.cls-1{fill:#fff;}</style></defs><title>photoshop_light</title><path class="cls-1" d="M114,55.75a60.32,60.32,0,0,1,25.84,23.43q9,15.16,9.06,35.93,0,20.51-9.06,35.81A59.26,59.26,0,0,1,114,174.34q-16.78,8.13-39.55,8.12H39.91v51.38H.23V47.5H74.44Q97.21,47.5,114,55.75ZM99.42,138.94q9.3-8.38,9.3-23.83,0-15.7-9.3-24.09T72.23,82.64H39.91v64.68H72.23Q90.11,147.32,99.42,138.94Z"/><path class="cls-1" d="M189.05,231.57q-15.68-4.38-25-11l12.74-29.82a76.6,76.6,0,0,0,21.3,10,82.48,82.48,0,0,0,24.49,3.86q24.26,0,24.25-13,0-6.12-6.62-8.78t-20.32-4.53a181.58,181.58,0,0,1-26.7-6.12A41,41,0,0,1,175,159.83q-7.72-8.78-7.72-25a41.49,41.49,0,0,1,7.23-24.09q7.22-10.52,21.06-16.37t32.69-5.86A118.45,118.45,0,0,1,256,91.82q13.83,3.33,22.9,9.18l-12.74,29.55a71.39,71.39,0,0,0-38-10.65q-12.24,0-18.36,3.73t-6.13,9.58q0,6.66,6.62,9.32t21.06,5.06a211.64,211.64,0,0,1,26.45,6.25A39.58,39.58,0,0,1,275.75,166q7.58,8.78,7.59,24.49A40,40,0,0,1,276,214.14q-7.35,10.38-21.43,16.1T221.13,236A118.26,118.26,0,0,1,189.05,231.57Z"/></svg>