<svg id="Calque_1" data-name="Calque 1" xmlns="http://www.w3.org/2000/svg" viewBox="0 0 449.09 647.5"><defs><style>.cls-1{fill:#d6d8e5;opacity:0.4;isolation:isolate;}.cls-2{fill:#2b2a30;}.cls-3{fill:#bf4b4b;}.cls-4{fill:#e26161;}.cls-5{fill:#ffcea9;}.cls-6{fill:#f4f4f4;}.cls-7{fill:#3a2c6d;}.cls-8{fill:#ededed;}.cls-9{fill:#38226d;}.cls-10{fill:#9c73ff;}.cls-11{fill:#8c50ff;}</style></defs><title>propositions</title><g id="Men_13" data-name="Men 13"><ellipse class="cls-1" cx="91.11" cy="408.58" rx="76.11" ry="43.94"/><path class="cls-2" d="M55.25,397.55c5.2,4.22,12.85.36,13.22.77a243.08,243.08,0,0,0,19.15,15.93C91,416.8,95.9,420.19,95,425.08c-1.61,8.72-15.59,6-20.89,3.36s-9.6-7.08-14.59-10.07c-3.56-2.21-7-3.35-7.62-7.84C51.39,407.67,54.21,397.44,55.25,397.55Z"/><path class="cls-3" d="M51.9,408.58c.7,4.29,4.16,5.5,7.68,7.68,5.1,3.15,9.56,7.72,14.82,10.37s17,4.93,20.46-1.31C93,433.74,79.27,431.09,74,428.44s-9.59-7.08-14.59-10.07c-3.55-2.21-7-3.35-7.61-7.84A11.57,11.57,0,0,1,51.9,408.58Z"/><path class="cls-2" d="M100.13,380.81c5.2,4.22,14.25-.37,14.66,0a201.57,201.57,0,0,0,17.07,15.46c3.35,2.52,8.28,5.94,7.38,10.83-1.64,8.73-15.63,6-20.9,3.36s-9.59-7.11-14.59-10.06c-3.55-2.22-7.08-3.36-7.61-7.85C95.8,389.7,99.22,380.71,100.13,380.81Z"/><path class="cls-3" d="M96.27,391.21c.71,4.29,4.16,5.5,7.68,7.68,5.1,3.15,9.56,7.71,14.83,10.39s17,4.9,20.46-1.34c-1.85,8.42-15.6,5.81-20.83,3.16s-9.56-7.11-14.56-10.23c-3.59-2.22-7.07-3.36-7.64-7.85A10.92,10.92,0,0,1,96.27,391.21Z"/><path id="_Контур_38" data-name=" Контур 38" class="cls-4" d="M54.81,206.09C55.08,213.94,57.5,248,58.6,266S60,306.28,60,306.28s-3.12,13.11-5.14,28.58,0,64.16,0,64.16a12.32,12.32,0,0,0,13.42,0s8.32-39,12.14-56.58,4.53-27.71,6.51-38.58c2.42-13.18,7.61-74.66,7.61-74.66h2.08l5.57,69.4a77.42,77.42,0,0,0-3.52,15.76c-1.51,11.31,1.61,68.19,1.61,68.19a13.75,13.75,0,0,0,14.36-.6s13.85-75.34,13.85-86.77c0-7.62-1.28-107.57-1.28-107.57Z"/><path id="_Контур_39" data-name=" Контур 39" class="cls-5" d="M73.63,54.51s.87,17.11.5,18.62-7.84,6.51-10.06,8.32S75.91,96.94,82.72,100.3s28.38-5.1,28.75-15.7-3.69-19.49-7-20S73.63,54.51,73.63,54.51Z"/><path class="cls-5" d="M120.46,86.24c1-7.54-4-14.72.83-20.72,16.78,16.57,14.76,60.37,18.59,88.38,12.54,13.08,37.73,26,44.81,29.18,1.27.6,2.41,1.24,2.14,2.62A31,31,0,0,1,181,198.51c-16.78-7.18-28.68-11.3-49.51-31.09a45.55,45.55,0,0,1-5.27-6.95C120.25,142.63,118.75,99.26,120.46,86.24Z"/><path id="_Контур_40" data-name=" Контур 40" class="cls-6" d="M71.72,76.08s12.41,18.48,29.72,20.13c5.47-5.37,5.93-24.52-1.61-30.66,0,0,6.94-5.6,11.7-4.53a24.61,24.61,0,0,1,10.8,13.75,112.38,112.38,0,0,1,6.11,39.58c-.3,18.15,0,73.59,0,73.59s-2.42,11.71-18.08,20.43-27.3,9.59-37.94,7.11c-8.75-2-16-5.13-19-11.47.8-12.75,6.47-45.92,4.36-61.92s-5.5-27.91-6.38-40.85S53.07,88.56,59.58,84A99.63,99.63,0,0,1,71.72,76.08Z"/><path id="_Контур_41" data-name=" Контур 41" class="cls-5" d="M112.27,29h0c-2-13.41-11.6-23.48-25.32-22.57A26.33,26.33,0,0,0,73.53,54.51a26.24,26.24,0,0,0,2.11,5.81c4.83,5.67,19.49,9.15,23.68,8.55a12.56,12.56,0,0,0,11-8.82C114.89,49.52,113.45,35.56,112.27,29Z"/><path class="cls-7" d="M73.63,54.51h0l1.24-11.6S65.31,18.42,87.79,23.15c14.75,3.12,18.44,4.46,22.94-5.43S99.39-1.1,80.54,1.38A26,26,0,0,0,57.26,27.75C57.8,35,59.75,49.75,73.63,54.51Z"/><path class="cls-5" d="M47.44,93.59c6.47-1.84,1.54-.34,6.47-1.84,16.77,16.53,14.79,44.91,18.61,72.92,9.33,15.46,43.91,36.25,43.91,36.25.44,3-.6,3.86-4.36,10.07a149.09,149.09,0,0,1-51.42-33.18c-.84-.77-2-1-2.38-2C52.33,157.79,45.72,106.64,47.44,93.59Z"/><polygon class="cls-6" points="201.32 128.17 176.2 214.11 121.03 236.14 141.15 152.42 201.32 128.17"/><path class="cls-5" d="M107.74,201.63c.81-2.95,2.92-2.22,5.34-1.48a13.86,13.86,0,0,0,8.15.71,25.42,25.42,0,0,0,5.83-4,7.29,7.29,0,0,1,3.69-1,51,51,0,0,1-1.27,5.1H142.9a2,2,0,0,1,1.91,3.35h.84c2.44-.54,3.35,3.36,1,3.83l-2,.3c1.61.63,2,3.35,0,3.69H144a2.6,2.6,0,0,1-.88,0h-.7a2.11,2.11,0,0,1-1.61,2.51l-.2,0c-5.91.77-14.59,3.12-19.93-1.75a33.19,33.19,0,0,1-10.7-2.88C106.84,208.44,106.74,205.12,107.74,201.63Z"/><path class="cls-5" d="M168.05,194.58h.84a2,2,0,0,1,1.17-3.65c1.25,0,13.69-2.62,13.69-2.62l1.51-5.1c0-.3,2.15,1,2.21,1.08a8.22,8.22,0,0,1,3.76,6.2,13.41,13.41,0,0,1-3.59,9.63,12.27,12.27,0,0,1-8.28,3.55,39.25,39.25,0,0,0-4.26.31,2.19,2.19,0,0,1-2.32-2v-.1h-.4a1.61,1.61,0,0,1-.87,0h-.64c-2.11,0-2.28-2.62-.84-3.56H168C165.3,198.51,165.54,194.55,168.05,194.58Z"/><path class="cls-8" d="M127.5,97.45a13.42,13.42,0,0,0,9-4c-.47-6.37-8.59-30.49-25-32.3A30.54,30.54,0,0,1,121.6,73.47,163.3,163.3,0,0,1,127.5,97.45Z"/><path class="cls-8" d="M44.48,129.31s16.27,5.64,27.74-3.82c1.28-2.15-6.71-29.85-6.71-29.85S58.81,81.48,48,87.12,44.48,129.31,44.48,129.31Z"/></g><g id="Слой_2" data-name="Слой 2"><g id="Слой_1-2" data-name="Слой 1-2"><ellipse class="cls-1" cx="335.34" cy="504.25" rx="72.64" ry="41.95"/><g id="Men_13-2" data-name="Men 13"><path class="cls-9" d="M376,504.24c-.54,4.5-4,5.65-7.64,7.88-5,3.1-9.31,7.53-14.6,10.22s-19.3,5.38-20.95-3.38c-1-4.91,4.07-8.3,7.3-10.86a232.58,232.58,0,0,0,19.2-16c.38-.38,8,3.49,13.25-.75C373.53,491.26,376.34,501.52,376,504.24Z"/><path class="cls-10" d="M376,504.24c-.55,4.5-4,5.65-7.64,7.88-5,3.1-9.36,7.55-14.6,10.22s-19.05,5.31-20.88-3.14c3.43,6.26,15.62,3.79,20.51,1.33,5.3-2.68,9.78-7.24,14.86-10.4,3.55-2.24,7-3.39,7.7-7.72A8.62,8.62,0,0,1,376,504.24Z"/><path class="cls-9" d="M331.61,486.21c-.54,4.51-4,5.66-7.62,7.88-5,3.1-9.31,7.54-14.6,10.22s-19.31,5.38-20.95-3.38c-1-4.9,4.05-8.3,7.3-10.85a204.31,204.31,0,0,0,17.13-15.48c.31-.4,9.42,4.24,14.6,0C328.4,474.49,331.83,483.49,331.61,486.21Z"/><path class="cls-10" d="M331.38,486.92c-.55,4.51-4.07,5.66-7.63,7.88-5,3.1-9.36,7.56-14.6,10.22s-19.07,5.31-20.89-3.14c3.43,6.26,15.64,3.8,20.53,1.33,5.27-2.68,9.76-7.24,14.85-10.4,3.54-2.24,7-3.39,7.7-7.71A8.51,8.51,0,0,1,331.38,486.92Z"/><path id="_Контур_7" data-name=" Контур 7" class="cls-11" d="M300.61,280.88s-1.29,100.23-1.29,107.82c0,11.49,13.9,87,13.9,87a13.85,13.85,0,0,0,14.4.58s3.1-57,1.59-68.35a78.11,78.11,0,0,0-3.51-15.78l5.48-69.58,2.08-.13s5.21,61.6,7.62,74.81c2,10.92,2.69,21.08,6.54,38.69s12.17,56.69,12.17,56.69a12.35,12.35,0,0,0,13.32,0s2-48.85,0-64.32-5.15-28.65-5.15-28.65.26-22,1.35-40.14,3.54-52.22,3.8-60.08Z"/><path id="_Контур_8" data-name=" Контур 8" class="cls-5" d="M323.13,157.5c-3.38.53-7.41,9.45-7,20.07s22,18.85,28.83,15.73,20.84-17,18.67-18.76-9.67-6.84-10.05-8.36.51-18.65.51-18.65S326.5,157,323.13,157.5Z"/><path class="cls-5" d="M301.36,253.58a45.75,45.75,0,0,1-5.29,6.94c-20.87,19.83-32.92,24-49.63,31.18-3.27-5.22-4.85-7.3-5.88-12.77-.25-1.41.86-2,2.16-2.61,7.11-3.12,32.37-16.06,44.92-29.2,3.85-28.08,1.7-72,18.61-88.56,4.84,6-.14,13.21.86,20.76C308.82,192.37,307.33,235.85,301.36,253.58Z"/><path id="_Контур_9" data-name=" Контур 9" class="cls-6" d="M368.25,177.13c6.5,4.54,9.13,4.36,8.21,17.32s-4.25,24.94-6.38,41,3.56,49.27,4.34,62c-3,6.37-10.27,9.47-19.07,11.51-10.64,2.48-22.31,1.63-38-7.11s-18.11-20.5-18.11-20.5.29-55.5,0-73.75a111.54,111.54,0,0,1,6.11-39.68,24.6,24.6,0,0,1,10.71-13.67c4.76-1.1,11.73,4.52,11.73,4.52-7.57,6.14-7.08,25.26-1.6,30.73,17.35-1.82,29.79-20.36,29.79-20.36A103.31,103.31,0,0,1,368.25,177.13Z"/><path id="_Контур_10" data-name=" Контур 10" class="cls-5" d="M317.25,153c2.59,5.91,5.48,8.17,10.95,8.94,4.2.55,18.89-2.9,23.72-8.57a26.31,26.31,0,0,0,2.14-5.83,26.17,26.17,0,0,0,11.51-20.27,26.48,26.48,0,0,0-25-27.9c-13.72-.76-23.3,9.33-25.35,22.63h0C314.13,128.54,312.71,142.5,317.25,153Z"/><path class="cls-7" d="M370.41,120.6a26.06,26.06,0,0,0-23.32-26.44c-18.85-2.42-34.74,6.5-30.24,16.43s8.23,8.57,23,5.47c22.5-4.73,12.94,19.87,12.94,19.87l1.26,11.6h0C368,142.74,369.91,128,370.41,120.6Z"/><path class="cls-5" d="M369.44,269c-.35,1.08-1.55,1.28-2.37,2.07-20.88,19.81-34.87,26-51.57,33.24-3.74-6-4.8-6.91-4.36-9.91,0,0,34.67-20.93,44-36.36,3.83-28.1,1.74-56.53,18.65-73.13,4.94,1.51,0,0,6.5,1.82C382,199.77,375.41,251.05,369.44,269Z"/><polygon class="cls-6" points="286.36 245.65 306.52 329.58 251.24 307.48 226.04 221.32 286.36 245.65"/><path class="cls-5" d="M317.49,303.36a33.91,33.91,0,0,1-10.73,2.9c-5.36,4.87-14.05,2.52-20,1.73l-.12,0a2.16,2.16,0,0,1-1.7-2.55h-.39a1.93,1.93,0,0,1-.89-.13l-.62-.11c-2-.34-1.63-3,0-3.64-.7-.1-1.37-.17-2-.31-2.5-.57-1.44-4.37,1-3.82l.82.13a2,2,0,0,1,1.83-3.36c1.24.26,13.35.13,13.35.13s-1.14-4.38-1.25-5.13a7.61,7.61,0,0,1,3.65,1.06c1.93,1.3,3.57,3.25,5.85,4a14,14,0,0,0,8.18-.71c2.39-.73,4.52-1.46,5.34,1.48C320.85,298.49,320.76,301.81,317.49,303.36Z"/><path class="cls-5" d="M259.5,291.68c-.67,0-1.37-.13-2-.13,1.44,1,1.28,3.65-.84,3.65H256a1.91,1.91,0,0,1-.89,0h-.39v0a2.17,2.17,0,0,1-2.17,2.17c-1.29-.11-2.75-.18-4.27-.27a12.32,12.32,0,0,1-8.44-3.65,13.26,13.26,0,0,1-3.65-9.62,8.39,8.39,0,0,1,3.75-6.24c.08-.05,2.25-1.36,2.25-1.07l1.5,5.12s12.46,2.61,13.74,2.61a2.08,2.08,0,0,1,1.49.78,2,2,0,0,1-.35,2.87h.83C262,287.91,262.15,291.85,259.5,291.68Z"/><path class="cls-8" d="M305.79,166.53a30.4,30.4,0,0,1,10.26-12.37c-16.39,1.8-24.54,26-25,32.35,2.64,3.72,9,4.05,9,4.05S302.82,173.81,305.79,166.53Z"/><path class="cls-8" d="M379.66,180.2c-10.71-5.64-17.56,8.55-17.56,8.55s-7.92,27.76-6.66,29.93c11.5,9.45,27.81,3.83,27.81,3.83S390.37,185.83,379.66,180.2Z"/></g></g></g><g id="Girl_4" data-name="Girl 4"><ellipse class="cls-1" cx="133.86" cy="601.11" rx="77.69" ry="44.85"/><path id="_Контур_33" data-name=" Контур 33" class="cls-5" d="M88.56,287c0,.78-10,29.41-9.11,37.9C81,340,95.78,353.11,95.78,353.11l-7.22,13.25c-15.13-12.25-21.4-24-23.32-39.17a134.48,134.48,0,0,1,7.16-45.26c6-16.06,9.79-23.56,16.64-25.51C89,256.42,88.56,286.21,88.56,287Z"/><path class="cls-9" d="M148.07,622.44a10.26,10.26,0,0,0,9.38,1.3c4.11-.85,11.5-5.92,21.78-8.35,4.62-1.13,13.35-7,11-13.35-2.74-7.23-24.48,1.3-28.18,1.3a16.63,16.63,0,0,1-13.69,1.85C145.47,609,145.23,619.57,148.07,622.44Z"/><path class="cls-10" d="M146.8,620a6.44,6.44,0,0,0,1.34,2.43,10.26,10.26,0,0,0,9.38,1.3c4.11-.85,11.5-5.92,21.77-8.35,4.42-1.06,12.19-6.23,11.27-12-.65,5.06-7.4,9.34-11.27,10.27-10.16,2.46-17.66,7.53-21.77,8.39A12.2,12.2,0,0,1,146.8,620Z"/><path class="cls-9" d="M92.94,593.1a9.94,9.94,0,0,0,9,1.27c3.84-.83,11.16-5.72,21-8.09,4.45-1.09,12.84-6.71,10.54-12.8-2.63-7-25,1.2-28.42,1.2a13.05,13.05,0,0,1-12,1.81C90.37,580.12,90.13,590.33,92.94,593.1Z"/><path class="cls-10" d="M91.68,590.74a5.7,5.7,0,0,0,1.26,2.36,9.94,9.94,0,0,0,9,1.27c3.84-.83,11.16-5.72,21-8.08,4-1,11.71-6,10.85-11.61-.58,4.89-7.12,9-10.85,9.93-9.8,2.36-17,7.22-21,8.08A11.63,11.63,0,0,1,91.68,590.74Z"/><path id="_Контур_34" data-name=" Контур 34" class="cls-5" d="M93.59,576.77s3.6,3.93,11.68-1.2c0,0,1.23-28.59,3.94-48.11,2.26-16.16,2.7-26.5,5.34-38.38s1.09-72.18,1.09-72.18,9.08,39.24,12.5,57.42c2.88,14.9,6.85,33.83,6.85,33.83A43.54,43.54,0,0,0,133.14,531c1.88,13.83,15.58,74.1,15.58,74.1s5.37,4.89,13.11-1.75c0,0,1.17-24.93,1.65-45.26.68-30.27-1.37-40.82-1.37-53,.48-47.12.06-82.69-5.89-112.62s-10.58-44.95-10.58-44.95l-53-4.18C90,355.78,79.55,367.63,78.25,385.91c-1.3,19.73,3.7,22.95,6.85,55.4,2.16,22,5,55.54,5,55.54a72.19,72.19,0,0,0-4.25,24.48C85.82,538.42,93.59,576.77,93.59,576.77Z"/><path class="cls-11" d="M146.36,347.7s3.8,11.88,9.34,36.13,9.42,92.44,6.61,98.57c-31.57,19.59-75.84-1.54-75.84-1.54l-2-32.42C82.36,416,78.08,422,78.08,392.52c0-26.16,9.18-43.45,14.73-49.13C105.65,358.69,146.36,347.7,146.36,347.7Z"/><path id="_Контур_35" data-name=" Контур 35" class="cls-5" d="M91.3,264.84c2.87,6,13.28,11.61,22.56,12.3s23.53-6.44,17.84-9.93-5.34-4.93-5.34-7.84a55.58,55.58,0,0,1,.34-8.26,35.6,35.6,0,0,0,5.89,1c6,.24,8.29-4.38,10.79-11,4.45-11.68,2.8-26.23,1.23-33.35-2.94-14.45-14-25-28.93-23.42a29,29,0,0,0-25.82,31.84,28.66,28.66,0,0,0,13.7,21.54,37,37,0,0,0,2.84,4.18s-.65,9.93-1,11.36c-.89,4-2,2.13-13.29,2.81C86.85,256.42,88.15,258.13,91.3,264.84Z"/><path class="cls-8" d="M87.26,300.14s-4.73-38.45-9.59-32.49-12.46,29.93-12.46,29.93c5.85,5.68,18.62,8.56,18.62,8.56Z"/><path id="_Контур_36" data-name=" Контур 36" class="cls-6" d="M89,256.52c-6.23,3.15-7.16,9-8.32,20.75-2,20.55,3.7,27.6,11,54.79a93.4,93.4,0,0,1,1.07,11.33c7,11.4,38.17,15.06,53.55,4.31.34-4.76,1.67-25.78,2.8-33.93-2.87-16.19,2.64-19.1-4.21-41.7a118.37,118.37,0,0,0-18.21-9.66,25.45,25.45,0,0,1-17.64,1.37c-8-2-7.8-5.31-5.71-7.91A55.2,55.2,0,0,0,89,256.52Z"/><path id="_Контур_37" data-name=" Контур 37" class="cls-5" d="M248.8,343.49c1.17,1.51-.55,4.62-3.42,6.23s-5.14,1.54-5.62,2.13,2.23.89,6,.89a47.89,47.89,0,0,0,11.09-2.43c3-.62,3.22,1.81,2.36,2.8a12.84,12.84,0,0,1-6.33,3.91,59,59,0,0,1-9.07,2.26,31.5,31.5,0,0,0,7.39,0c4.66-.48,6.37-1.24,8.9-1.37s1.61,3.8-.89,4.86a30.13,30.13,0,0,1-8.14,2.05c-3.12.38-8.39.55-8.39.55a31.22,31.22,0,0,0,11.36.27c2.4-.17,3.43.72,3.22,2s-2,2.43-7.05,3.42a38.72,38.72,0,0,1-18.32-2c-5.89-2-8-3.39-11.23-4.07a95.64,95.64,0,0,1-26.12-9.07A111.62,111.62,0,0,1,163.51,334a206.89,206.89,0,0,1-29.79-39c-6.54-10.82-5.82-16.6,0-18.52,4.86-1.57,10.44.45,14.86,8.49a258.76,258.76,0,0,0,26,37.15,109.52,109.52,0,0,0,29.79,22.39c10.17,4.8,16.06,6.75,19.83,6.17a34.34,34.34,0,0,0,10-3.43,79.21,79.21,0,0,1,10.27-2.94C247.64,343.12,247.64,342,248.8,343.49Z"/><path class="cls-8" d="M130.57,289.63c-7.94-16.64,0-17.49,0-17.49,10.55-5.69,18.53,4.38,18.53,4.38l14.17,19.65a41,41,0,0,1-23.42,11.88A162.77,162.77,0,0,1,130.57,289.63Z"/><path class="cls-7" d="M143.79,214.24c-23,28.69-1.82,80.32-13.46,85.9s-39.51-.06-49.68-9,.72-32.66,4.76-62.62a105.62,105.62,0,0,1,4-20.54c4.08-13.36,12.88-22.23,26.33-23.63a25.05,25.05,0,0,1,16.85,4.07,13.13,13.13,0,0,1,14.79,10.82C149.71,202.66,149.2,207.42,143.79,214.24Z"/></g></svg>