<svg id="Calque_1" data-name="Calque 1" xmlns="http://www.w3.org/2000/svg" viewBox="0 0 283.46 283.46"><defs><style>.cls-1{fill:#1d1d1b;}</style></defs><title>symfony</title><path class="cls-1" d="M143,36.49A105.68,105.68,0,1,0,248.67,142.17,105.68,105.68,0,0,0,143,36.49Zm63.66,57.18a8.38,8.38,0,0,1-10.31,3.72,7.09,7.09,0,0,1-4.8-8.1c.2-1.55,1.14-2.77,1.81-4.11,1.55-3.07.65-4.84-2.81-5.19-5.66-.56-10.17,1.67-13.74,5.93-4.06,4.85-6.1,10.68-7.77,16.64-2.23,8-3.63,16.17-5.1,24.34-.16.9-.15,1.42.92,1.53,5.73.53,11.4.55,16.71-2.08,3.63-1.79,4.05-3.32,2.09-6.86-1.8-3.24-1.76-5.29.29-7.49s4.45-3.15,7.25-2.2,4.2,3.41,4.54,6.32c.43,3.63-1.16,6.55-3.59,9-4.64,4.77-10.57,6.69-17,7.49-1.9.24-3.83.25-5.29.33a29.64,29.64,0,0,1-4.35-.28c-2.24-.5-2.83.45-3.17,2.52-1.62,9.67-3.3,19.32-5.79,28.81-3.64,13.83-9.27,26.66-18.75,37.56-6.91,8-15,14.06-25.61,16.11-5,1-10,.79-14.67-1.5-5.68-2.78-8.46-8.55-6.83-14.11s8.18-9.12,13.54-7.21a8.76,8.76,0,0,1,5.86,8.56,5.67,5.67,0,0,1-2.76,5c-1.43.91-3.31,1.86-2.52,3.93s3,1.81,4.82,1.49c4-.69,7.06-2.89,9.78-5.68,4.71-4.84,7.48-10.78,9.58-17.08,3.85-11.54,6-23.48,8.14-35.42A269.78,269.78,0,0,1,143.67,127a2.35,2.35,0,0,0-.91-2.93c-3.17-2.61-6.15-5.46-9.32-8.08a26.25,26.25,0,0,0-14.11-6.17,10.53,10.53,0,0,0-10.84,5.49c-1.94,3.67-1.18,8.08,2,11.58s6.16,6.81,9,10.4c12.46,15.56,1.54,31.9-13.92,34.84a32.18,32.18,0,0,1-24.38-4.87c-5.41-3.55-8.83-8.46-8.31-15.27.42-5.43,3.94-8.41,8.63-7.59s7.68,5.38,6.54,10.34A16,16,0,0,1,86,159.44c-1.51,2.5-1.17,4.06,1.17,5.84a13.57,13.57,0,0,0,16.12.27c4.57-3.47,5.39-9.36,1.75-13.78-2.22-2.7-4.74-5.15-7.1-7.73-4.17-4.58-7.06-9.82-7.54-16.08-.71-9.23,4.78-17.65,14.1-21.57,10.36-4.37,20-2.3,29,3.85,3.93,2.68,7.19,6.14,10.69,9.33,1.23,1.11,1.59.84,2.09-.59,3.8-10.83,8.94-20.93,16.67-29.53,6.62-7.38,14.54-12.5,24.69-13.38,5.52-.49,10.85.23,15.54,3.46A10.53,10.53,0,0,1,206.65,93.67Z"/></svg>