<svg id="Calque_1" data-name="Calque 1" xmlns="http://www.w3.org/2000/svg" viewBox="0 0 283.46 283.46"><defs><style>.cls-1{fill:#211b49;}.cls-2{fill:#2e245b;}.cls-3{fill:#a298e2;}.cls-4{fill:#c33afc;}.cls-5{fill:#f4ce2c;}.cls-6{fill:#ff8657;}.cls-7{fill:#4d3bff;}</style></defs><title>web</title><g id="Слой_2" data-name="Слой 2"><g id="Слой_1-2" data-name="Слой 1-2"><path class="cls-1" d="M211.58,280.29,75.47,214.73C66.91,210.65,60,199.57,60,190.06V11.39c0-9.52,6.93-13.87,15.49-9.76L211.58,67.2c8.54,4.08,15.47,15.16,15.47,24.67v178.7C227.05,280.08,220.12,284.41,211.58,280.29Z"/><polygon class="cls-1" points="217.03 282.9 221.69 280.98 218.54 275.83 217.03 282.9"/><path class="cls-2" d="M208,281.78,71.88,216.18C63.34,212.1,56.41,201,56.41,191.52V12.89c0-9.52,6.93-13.89,15.47-9.77L208,68.7c8.54,4.08,15.47,15.15,15.47,24.65V272C223.48,281.53,216.55,285.9,208,281.78Z"/><polygon class="cls-3" points="96.64 40.38 71.88 28.45 71.88 21 96.64 32.93 96.64 40.38"/><polygon class="cls-4" points="206.47 93.28 101.28 42.61 101.28 35.17 206.47 85.83 206.47 93.28"/><polygon class="cls-3" points="96.64 64.23 71.88 52.3 71.88 44.85 96.64 56.78 96.64 64.23"/><polygon class="cls-5" points="170.89 99.98 101.28 66.46 101.28 59.01 170.89 92.53 170.89 99.98"/><polygon class="cls-3" points="96.64 76.14 71.88 64.23 71.88 56.78 96.64 68.69 96.64 76.14"/><polygon class="cls-6" points="187.9 120.11 101.28 78.38 101.28 70.93 187.9 112.66 187.9 120.11"/><polygon class="cls-3" points="96.64 88.06 71.88 76.14 71.88 68.69 96.64 80.61 96.64 88.06"/><polygon class="cls-3" points="161.62 119.36 101.28 90.31 101.28 82.85 161.62 111.91 161.62 119.36"/><polygon class="cls-3" points="96.64 52.3 71.88 40.38 71.88 32.93 96.64 44.85 96.64 52.3"/><polygon class="cls-7" points="153.87 79.88 101.28 54.53 101.28 47.08 153.87 72.41 153.87 79.88"/><polygon class="cls-3" points="96.64 99.98 71.88 88.06 71.88 80.61 96.64 92.53 96.64 99.98"/><polygon class="cls-4" points="132.21 117.12 101.28 102.22 101.28 94.76 132.21 109.67 132.21 117.12"/><polygon class="cls-3" points="96.64 123.82 71.88 111.91 71.88 104.46 96.64 116.38 96.64 123.82"/><polygon class="cls-5" points="198.74 173 101.28 126.06 101.28 118.61 198.74 165.55 198.74 173"/><polygon class="cls-3" points="96.64 135.74 71.88 123.82 71.88 116.37 96.64 128.29 96.64 135.74"/><polygon class="cls-6" points="130.67 152.14 101.28 137.99 101.28 130.54 130.67 144.69 130.67 152.14"/><polygon class="cls-3" points="96.64 147.67 71.88 135.74 71.88 128.29 96.64 140.22 96.64 147.67"/><polygon class="cls-3" points="187.9 191.63 101.28 149.9 101.28 142.46 187.9 184.18 187.9 191.63"/><polygon class="cls-3" points="96.64 111.91 71.88 99.98 71.88 92.53 96.64 104.46 96.64 111.91"/><polygon class="cls-7" points="183.26 153.64 101.28 114.14 101.28 106.69 183.26 146.19 183.26 153.64"/><polygon class="cls-3" points="96.64 159.59 71.88 147.67 71.88 140.22 96.64 152.14 96.64 159.59"/><polygon class="cls-4" points="112.1 167.04 101.28 161.82 101.28 154.37 112.1 159.59 112.1 167.04"/><polygon class="cls-3" points="96.64 183.43 71.88 171.52 71.88 164.06 96.64 175.99 96.64 183.43"/><polygon class="cls-5" points="121.39 195.35 101.28 185.67 101.28 178.22 121.39 187.9 121.39 195.35"/><polygon class="cls-3" points="96.64 195.35 71.88 183.43 71.88 175.98 96.64 187.9 96.64 195.35"/><polygon class="cls-6" points="153.87 222.92 101.28 197.59 101.28 190.14 153.87 215.47 153.87 222.92"/><polygon class="cls-3" points="96.64 207.28 71.88 195.35 71.88 187.9 96.64 199.82 96.64 207.28"/><polygon class="cls-3" points="184.81 249.75 101.28 209.5 101.28 202.05 184.81 242.3 184.81 249.75"/><polygon class="cls-3" points="96.64 171.52 71.88 159.59 71.88 152.14 96.64 164.06 96.64 171.52"/><polygon class="cls-7" points="206.47 224.42 101.28 173.75 101.28 166.29 206.47 216.96 206.47 224.42"/></g></g></svg>