<?xml version="1.0" encoding="utf-8"?>
<!-- Generator: Adobe Illustrator 22.1.0, SVG Export Plug-In . SVG Version: 6.00 Build 0)  -->
<svg version="1.1" id="Capa_1" xmlns="http://www.w3.org/2000/svg" xmlns:xlink="http://www.w3.org/1999/xlink" x="0px" y="0px"
	 viewBox="0 0 512 512" style="enable-background:new 0 0 512 512;" xml:space="preserve">
<style type="text/css">
	.st0{fill:#767691;stroke:#767691;stroke-width:16;stroke-miterlimit:10;}
	.st1{fill:#767691;stroke:#767691;stroke-width:15;stroke-miterlimit:10;}
</style>
<g>
	<g>
		<path class="st0" d="M358.9,10.5H153.1c-78.6,0-142.6,64-142.6,142.6v205.7c0,78.6,64,142.6,142.6,142.6h205.7
			c78.6,0,142.6-64,142.6-142.6V153.1C501.5,74.5,437.5,10.5,358.9,10.5z M463.1,358.9c0,57.5-46.8,104.3-104.3,104.3H153.1
			c-57.5,0-104.3-46.8-104.3-104.3V153.1c0-57.5,46.8-104.3,104.3-104.3h205.7c57.5,0,104.3,46.8,104.3,104.3V358.9z"/>
	</g>
</g>
<g>
	<g>
		<path class="st1" d="M256,123.7c-73,0-132.3,59.4-132.3,132.3S183,388.3,256,388.3S388.3,329,388.3,256S329,123.7,256,123.7z
			 M256,350c-51.8,0-94-42.2-94-94s42.2-94,94-94s94,42.2,94,94S307.8,350,256,350z"/>
	</g>
</g>
<g>
	<g>
		<circle class="st1" cx="390.2" cy="121.8" r="19.2"/>
	</g>
</g>
</svg>
