<?xml version="1.0" encoding="utf-8"?>
<!-- Generator: Adobe Illustrator 22.1.0, SVG Export Plug-In . SVG Version: 6.00 Build 0)  -->
<svg version="1.1" id="Calque_1" xmlns="http://www.w3.org/2000/svg" xmlns:xlink="http://www.w3.org/1999/xlink" x="0px" y="0px"
	 viewBox="0 0 512 512" style="enable-background:new 0 0 512 512;" xml:space="preserve">
<style type="text/css">
	.st0{fill:#767691;stroke:#767691;stroke-width:15;stroke-miterlimit:10;}
</style>
<g>
	<path class="st0" d="M126.6,165H34.5c-7.9,0-14.3,6.4-14.3,14.3v306.9c0,7.9,6.4,14.3,14.3,14.3h92.1c7.9,0,14.3-6.4,14.3-14.3
		V179.3C140.9,171.4,134.5,165,126.6,165z M112.2,471.8H48.8V193.6h63.4V471.8z"/>
	<path class="st0" d="M80.5,11.5c-33.3,0-60.4,27.1-60.4,60.3c0,33.3,27.1,60.4,60.4,60.4c33.3,0,60.3-27.1,60.3-60.4
		C140.9,38.6,113.8,11.5,80.5,11.5z M80.5,103.6c-17.5,0-31.7-14.2-31.7-31.7c0-17.5,14.2-31.7,31.7-31.7
		c17.5,0,31.7,14.2,31.7,31.7C112.2,89.4,98,103.6,80.5,103.6z"/>
	<path class="st0" d="M356.7,162.9c-21.8,0-43.2,5.2-62.5,15.1c-0.7-7.3-6.8-13-14.3-13h-92.1c-7.9,0-14.3,6.4-14.3,14.3v306.9
		c0,7.9,6.4,14.3,14.3,14.3H280c7.9,0,14.3-6.4,14.3-14.3V317.4c0-21.7,17.7-39.4,39.4-39.4s39.4,17.7,39.4,39.4v168.8
		c0,7.9,6.4,14.3,14.3,14.3h92.1c7.9,0,14.3-6.4,14.3-14.3V300C493.8,224.4,432.3,162.9,356.7,162.9z M465.1,471.8h-63.4V317.4
		c0-37.5-30.5-68-68-68c-37.5,0-68,30.5-68,68v154.4h-63.4V193.6h63.4v10.6c0,5.5,3.2,10.5,8.1,12.9c5,2.4,10.9,1.7,15.2-1.7
		c19.4-15.6,42.8-23.8,67.8-23.8c59.8,0,108.4,48.6,108.4,108.4V471.8z"/>
</g>
</svg>
